<svg width="280" height="309" viewBox="0 0 280 309" fill="none" xmlns="http://www.w3.org/2000/svg">
<path opacity="0.6" d="M64.8391 295.521C90.7879 288.188 114.266 279.283 135.166 261.667C151.36 248.016 172.785 226.734 173.479 204.006C173.748 195.236 170.688 187.026 162.529 182.906C156.768 179.997 143.762 177.149 139.304 184.11C133.916 192.522 150.604 208.461 157.134 211.509C170.852 217.911 185.391 216.502 197.57 207.581C219.659 191.4 225.687 166.274 226.792 140.137C228.111 108.918 223.595 78.0068 204.354 53.2551" stroke="black" stroke-width="12" stroke-linecap="round"/>
<path opacity="0.6" d="M174.391 58.785C180.527 43.098 185.609 25.9391 193.758 11.1303C196.982 5.27301 209.148 20.6777 212.939 23.9204C218.7 28.849 224.358 35.7124 231.017 39.332C234.44 41.1925 238.473 43.3851 240.741 46.455" stroke="black" stroke-width="12" stroke-linecap="round"/>
</svg>
