<svg width="397" height="267" viewBox="0 0 397 267" fill="none" xmlns="http://www.w3.org/2000/svg">
<path opacity="0.6" d="M363.614 237.202C347.399 245.702 324.594 245.691 306.895 245.691C268.853 245.691 228.769 240.77 193.11 226.903C185.051 223.769 172.742 219.215 168.248 210.829C162.999 201.033 175.586 191.099 182.307 186.613C214.905 164.856 259.479 165.017 296.992 166.642C315.307 167.435 333.682 169.193 351.772 172.209C362.414 173.983 379.496 175.552 387.576 184.178C399.264 196.655 377.992 216.704 369.155 222.867C348.335 237.387 322.384 244.942 298.862 253.833C291.039 256.789 283.409 259.957 275.107 261" stroke="#5CC4FF" stroke-width="12" stroke-linecap="round"/>
<path opacity="0.6" d="M167.18 164.46C148.669 175.797 110.052 152.158 107.873 131.88C106.255 116.819 109.623 99.6161 124.27 91.7565C130.258 88.5431 153.319 80.1341 154.679 92.4007C158.488 126.767 98.9982 115.345 82.1791 108.371C62.3479 100.147 45.3971 89.2547 39.5691 68.109C36.949 58.6023 35.7788 48.6555 34 39" stroke="#5CC4FF" stroke-width="12" stroke-linecap="round"/>
<path opacity="0.6" d="M6 50C6 34.8675 12.3106 17.7766 23.8272 8.21168C35.7547 -1.69455 51.4438 24.6599 63 28.5701" stroke="#5CC4FF" stroke-width="12" stroke-linecap="round"/>
</svg>
