<svg width="316" height="356" viewBox="0 0 316 356" fill="none" xmlns="http://www.w3.org/2000/svg">
<path opacity="0.6" d="M219.032 121.527C178.1 126.238 155.001 131.121 113.403 126.778C90.2727 124.364 43.8613 114.039 22.5019 100.618C5.25111 89.7783 -0.303318 75.6152 14.7158 59.4549C23.9197 49.5516 36.156 42.7861 48.018 36.295C81.391 18.0325 110.803 7.88542 149.379 6.24329C189.983 4.5148 218.629 11.9509 254.539 30.0127C273.178 39.388 302.552 56.4033 308.948 80.2708C314.639 101.505 296.09 112.217 280.993 120.215C269.846 126.12 257.838 130.466 245.674 133.811C190.462 148.991 214.986 135.552 158.244 146" stroke="#FD93FF" stroke-width="12" stroke-linecap="round"/>
<path opacity="0.6" d="M135.434 146C125.173 173.998 109.011 206.213 115.049 237.217C118.07 252.727 130.271 266.232 146.708 267.14C166.418 268.228 168.798 237.362 155.086 241.416C130.72 248.621 119.313 278.425 135.516 298.109C146.718 311.717 163.595 322.143 180.375 327.319" stroke="#FD93FF" stroke-width="12" stroke-linecap="round"/>
<path opacity="0.6" d="M181.002 349.84C185.733 347.495 198.195 343.65 200.367 338.692C203.049 332.568 193.225 314.096 191.143 307.915" stroke="#FD93FF" stroke-width="12" stroke-linecap="round"/>
</svg>
