<svg width="550" height="374" viewBox="0 0 550 374" fill="none" xmlns="http://www.w3.org/2000/svg">
<path opacity="0.6" d="M269.741 60.1572C289.523 69.8679 296.579 73.0996 316.892 84.6801C339.808 97.7443 366.275 118.998 383.958 137.094C402.906 156.486 420.16 179.935 432.446 203.51C441.892 221.636 454.039 249.086 449.295 270.255C446.049 284.741 428.74 294.857 413.358 295.855C400.279 296.703 393.459 283.995 392.862 273.677C390.991 241.338 446.95 237.333 469.217 248.002C503.853 264.597 510.424 304.74 514 337" stroke="#FFDC3E" stroke-width="12" stroke-linecap="round"/>
<path opacity="0.6" d="M537.942 322.768C534.734 332.832 531.697 342.863 528.743 352.898C525.489 363.95 521.795 362.155 511.759 357.875C500.473 353.062 490.368 347.101 479 342.426" stroke="#FFDC3E" stroke-width="12" stroke-linecap="round"/>
<path opacity="0.6" d="M235.717 61.5489C204.573 60.9456 173.397 61.0618 142.284 59.739C112.135 58.4572 52.5554 57.0608 20.5609 43.5634C-10.783 30.3404 15.3075 20.5123 35.074 16.0762C84.0804 5.07777 154.236 5.47309 202.009 6.46128C231.446 7.07018 261.053 7.54706 290.158 11.3253C335.226 17.1758 333.744 25.0144 294.84 38.2469C270.228 46.6182 174.107 68.2066 148.103 73.9916C105.302 83.5134 115.435 80.8424 86.4386 87" stroke="#FFDC3E" stroke-width="12" stroke-linecap="round"/>
</svg>
