<svg width="80" height="176" viewBox="0 0 80 176" fill="none" xmlns="http://www.w3.org/2000/svg">
<path opacity="0.6" d="M6.78479 9.50835C18.0342 3.00523 32.8728 6.61104 44.0087 11.6967C54.3105 16.4014 71.3343 27.5147 73.5566 44.376C76.5605 67.1677 63.8908 99.5432 48.0045 107.546C41.1318 111.008 31.7458 108.198 24.871 106.379C18.1589 104.603 12.2187 100.828 7.57343 93.7596C1.97401 85.2391 12.7466 80.2177 17.6155 79.5353C31.2679 77.6221 57.7033 83.9346 64.1454 104.045C67.6802 115.079 61.6128 127.535 56.9425 135.995C54.0007 141.323 49.0303 144.802 46.5324 150" stroke="#F1B82D" stroke-width="12" stroke-linecap="round"/>
<path opacity="0.6" d="M27 149.248C30.2326 155.952 35.6137 170.982 42.8233 169.949C54.9311 168.216 64.2369 152.672 74 144" stroke="#F1B82D" stroke-width="12" stroke-linecap="round"/>
</svg>
