<svg width="24" height="25" viewBox="0 0 24 25" fill="none" xmlns="http://www.w3.org/2000/svg">
<path d="M4.53001 2.8C4.33138 2.8081 4.13967 2.87521 3.97937 2.99277C3.81906 3.11032 3.69743 3.27299 3.63001 3.46L2.12001 7.74C1.96 8.20324 1.96 8.70676 2.12001 9.17C2.28254 9.70091 2.60714 10.1677 3.0483 10.5048C3.48945 10.8419 4.02505 11.0326 4.58001 11.05C4.9399 11.0371 5.29373 10.9534 5.62125 10.8036C5.94877 10.6539 6.24355 10.4411 6.48874 10.1773C6.73394 9.91351 6.92473 9.60399 7.0502 9.26643C7.17568 8.92887 7.23338 8.56988 7.22001 8.21C7.19296 8.93515 7.45467 9.64143 7.94773 10.1739C8.44078 10.7063 9.12491 11.0214 9.84999 11.05C10.2099 11.0371 10.5637 10.9534 10.8913 10.8036C11.2188 10.6539 11.5136 10.4411 11.7588 10.1773C12.0039 9.91351 12.1947 9.60399 12.3202 9.26643C12.4457 8.92887 12.5034 8.56988 12.49 8.21C12.4766 8.56988 12.5343 8.92887 12.6598 9.26643C12.7853 9.60399 12.9761 9.91351 13.2213 10.1773C13.4665 10.4411 13.7613 10.6539 14.0888 10.8036C14.4163 10.9534 14.7701 11.0371 15.13 11.05C15.8516 11.0162 16.5306 10.6989 17.0194 10.1671C17.5082 9.63519 17.7672 8.93184 17.74 8.21C17.7267 8.57151 17.785 8.93209 17.9118 9.27092C18.0385 9.60976 18.231 9.92015 18.4783 10.1842C18.7256 10.4482 19.0228 10.6607 19.3526 10.8093C19.6824 10.9579 20.0384 11.0397 20.4 11.05C20.9584 11.0367 21.4985 10.848 21.9436 10.5105C22.3888 10.1731 22.7164 9.70407 22.88 9.17C23.04 8.70676 23.04 8.20324 22.88 7.74L21.35 3.46C21.2826 3.27299 21.161 3.11032 21.0007 2.99277C20.8403 2.87521 20.6486 2.8081 20.45 2.8H4.53001Z" stroke="black" stroke-width="1.5" stroke-linecap="round" stroke-linejoin="round"/>
<path d="M21.49 10.7902V21.5502C21.49 21.9481 21.332 22.3296 21.0507 22.6109C20.7694 22.8922 20.3878 23.0502 19.99 23.0502H16.99" stroke="black" stroke-width="1.5" stroke-linecap="round" stroke-linejoin="round"/>
<path d="M3.73999 11.05V21.5502C3.73999 21.9481 3.89799 22.3296 4.17929 22.6109C4.46059 22.8922 4.84219 23.0502 5.23999 23.0502H8.23999" stroke="black" stroke-width="1.5" stroke-linecap="round" stroke-linejoin="round"/>
</svg>
