<svg width="24" height="25" viewBox="0 0 24 25" fill="none" xmlns="http://www.w3.org/2000/svg">
<g clip-path="url(#clip0_29_180)">
<path d="M4.5 18.8H3.75C2.95435 18.8 2.19129 18.4839 1.62868 17.9213C1.06607 17.3587 0.75 16.5956 0.75 15.8V12.8C0.75 12.0044 1.06607 11.2413 1.62868 10.6787C2.19129 10.1161 2.95435 9.8 3.75 9.8H4.5C4.69891 9.8 4.88968 9.87902 5.03033 10.0197C5.17098 10.1603 5.25 10.3511 5.25 10.55V18.05C5.25 18.2489 5.17098 18.4397 5.03033 18.5803C4.88968 18.721 4.69891 18.8 4.5 18.8Z" stroke="black" stroke-width="1.5" stroke-linecap="round" stroke-linejoin="round"/>
<path d="M20.25 18.8H19.5C19.3011 18.8 19.1103 18.721 18.9697 18.5803C18.829 18.4397 18.75 18.2489 18.75 18.05V10.55C18.75 10.3511 18.829 10.1603 18.9697 10.0197C19.1103 9.87902 19.3011 9.8 19.5 9.8H20.25C21.0456 9.8 21.8087 10.1161 22.3713 10.6787C22.9339 11.2413 23.25 12.0044 23.25 12.8V15.8C23.25 16.5956 22.9339 17.3587 22.3713 17.9213C21.8087 18.4839 21.0456 18.8 20.25 18.8Z" stroke="black" stroke-width="1.5" stroke-linecap="round" stroke-linejoin="round"/>
<path d="M3.75 9.8C3.75 7.61196 4.61919 5.51354 6.16637 3.96637C7.71354 2.41919 9.81196 1.55 12 1.55C14.188 1.55 16.2865 2.41919 17.8336 3.96637C19.3808 5.51354 20.25 7.61196 20.25 9.8" stroke="black" stroke-width="1.5" stroke-linecap="round" stroke-linejoin="round"/>
<path d="M15 22.55H17.25C18.0456 22.55 18.8087 22.2339 19.3713 21.6713C19.9339 21.1087 20.25 20.3456 20.25 19.55V18.8" stroke="black" stroke-width="1.5" stroke-linecap="round" stroke-linejoin="round"/>
<path d="M13.5 24.05H12C11.6022 24.05 11.2206 23.892 10.9393 23.6107C10.658 23.3294 10.5 22.9478 10.5 22.55C10.5 22.1522 10.658 21.7706 10.9393 21.4893C11.2206 21.208 11.6022 21.05 12 21.05H13.5C13.8978 21.05 14.2794 21.208 14.5607 21.4893C14.842 21.7706 15 22.1522 15 22.55C15 22.9478 14.842 23.3294 14.5607 23.6107C14.2794 23.892 13.8978 24.05 13.5 24.05Z" stroke="black" stroke-width="1.5" stroke-linecap="round" stroke-linejoin="round"/>
<path d="M9 9.05004C9.00011 8.50007 9.15139 7.96071 9.43732 7.49091C9.72325 7.02111 10.1328 6.63895 10.6213 6.38619C11.1097 6.13344 11.6583 6.01982 12.2069 6.05776C12.7556 6.09569 13.2833 6.28372 13.7323 6.60129C14.1813 6.91886 14.5344 7.35375 14.7529 7.85843C14.9715 8.36311 15.0471 8.91816 14.9715 9.46291C14.8959 10.0077 14.6721 10.5212 14.3244 10.9473C13.9767 11.3734 13.5185 11.6957 13 11.879C12.7074 11.9825 12.4541 12.1741 12.275 12.4275C12.0959 12.681 11.9998 12.9837 12 13.294V13.55" stroke="black" stroke-width="1.5" stroke-linecap="round" stroke-linejoin="round"/>
<path d="M12 17.3C11.7929 17.3 11.625 17.1321 11.625 16.925C11.625 16.7179 11.7929 16.55 12 16.55" stroke="black" stroke-width="1.5"/>
<path d="M12 17.3C12.2071 17.3 12.375 17.1321 12.375 16.925C12.375 16.7179 12.2071 16.55 12 16.55" stroke="black" stroke-width="1.5"/>
</g>
<defs>
<clipPath id="clip0_29_180">
<rect width="24" height="24" fill="white" transform="translate(0 0.800003)"/>
</clipPath>
</defs>
</svg>
