<svg width="24" height="25" viewBox="0 0 24 25" fill="none" xmlns="http://www.w3.org/2000/svg">
<path d="M4.5 9.425L9 4.175" stroke="black" stroke-width="1.5" stroke-linecap="round" stroke-linejoin="round"/>
<path d="M19.5 9.425L15 4.175" stroke="black" stroke-width="1.5" stroke-linecap="round" stroke-linejoin="round"/>
<path d="M18.936 21.425H5.064C4.73922 21.4191 4.42594 21.3037 4.17493 21.0975C3.92392 20.8913 3.74988 20.6064 3.681 20.289L1.543 11.289C1.48576 11.0735 1.47784 10.8478 1.51982 10.6288C1.5618 10.4097 1.65261 10.203 1.7855 10.0239C1.91838 9.84476 2.08993 9.69791 2.28738 9.59423C2.48483 9.49055 2.70311 9.43271 2.926 9.425H21.074C21.2969 9.43271 21.5152 9.49055 21.7126 9.59423C21.9101 9.69791 22.0816 9.84476 22.2145 10.0239C22.3474 10.203 22.4382 10.4097 22.4802 10.6288C22.5222 10.8478 22.5142 11.0735 22.457 11.289L20.319 20.289C20.2501 20.6064 20.0761 20.8913 19.8251 21.0975C19.5741 21.3037 19.2608 21.4191 18.936 21.425Z" stroke="black" stroke-width="1.5" stroke-linecap="round" stroke-linejoin="round"/>
<path d="M7.5 12.425V18.425" stroke="black" stroke-width="1.5" stroke-linecap="round" stroke-linejoin="round"/>
<path d="M12 12.425V18.425" stroke="black" stroke-width="1.5" stroke-linecap="round" stroke-linejoin="round"/>
<path d="M16.5 12.425V18.425" stroke="black" stroke-width="1.5" stroke-linecap="round" stroke-linejoin="round"/>
</svg>
