<svg xmlns="http://www.w3.org/2000/svg" width="630.952" height="83.285" viewBox="0 0 473.214 62.464"><path fill="#8c8c8a" d="M18.787 0c-2.234 0-4.316.444-6.203 1.263-4.925 2.15-8.297 6.812-8.367 12.362.097 6.909 6.536 11.543 12.78 16.025 1.72 1.235 3.51 2.525 5.132 3.829 5.065 4.107 7.52 8.283 7.52 12.765v.319c0 4.953-3.58 7.95-7.464 9.352-1.79.638-3.677.943-5.287.943-2.08 0-3.856-.36-5.396-.943-1.637-.639-3.012-1.528-4.191-2.513a.334.334 0 0 1-.082-.069.516.516 0 0 1-.098-.083C3.55 50.267.805 46.66 0 44.912v11.21l.596.36c.167.112.39.251.639.432 1.346.901 3.8 2.566 7.394 3.717 2.29.736 5.037 1.263 8.27 1.263 2.747 0 5.231-.458 7.423-1.263 2.9-1.054 5.314-2.705 7.187-4.716 2.927-3.15 4.509-7.16 4.509-11.114 0-5.467-1.93-10.336-5.73-14.485-2.762-2.996-6.147-5.3-9.421-7.533-5.273-3.608-9.947-6.535-9.961-11.294v-.015c0-.374.028-.735.096-1.068.625-3.468 4.163-5.634 7.673-5.634 1.748 0 3.218.265 4.522.75v-.014c.029.014.056.03.084.042h.03c2.705.958 5.16 3.246 7.726 5.701v-8.49l-2.442-.75c-.804-.25-1.636-.512-2.455-.748C23.726.555 21.284 0 18.787 0zm136.15.001c-17.663 0-30.982 13.208-30.982 30.731h-.001c0 22.713 18.674 31.162 30.454 31.162 5.896 0 11.446-2.427 15.483-4.19 2.109-.915 4.094-1.79 5.05-1.79h1.264V44.649c0-2.47 1.331-4.537 2.857-6.41h-14.109c1.915 1.637 3.483 3.468 3.913 5.688 0 .014-.001.057.013.07.028.111.029.208.056.333.014.097.027.195.027.292v.027c.07.805.084 1.86.084 3.441v3.594l-.5.388c-2.525 1.859-7.104 5.106-14.734 5.106-12.65 0-21.5-11.024-21.506-26.792v-.499c0-14.513 9.477-25.043 22.532-25.043 3.802 0 6.453.666 8.34 1.665a10.459 10.459 0 0 1 2.261 1.692c2.179 2.067 3.884 5.148 4.606 8.7l.14-.472 4.328-13.652h-1.707c-1.568 0-3.76-.5-6.299-1.068-3.524-.805-7.533-1.707-11.57-1.707zm-82.86 1.262c2.026 1.72 3.497 3.871 3.802 6.258.139.943.152 2.247.152 4.425v37.988c0 2.178-.014 3.483-.152 4.426-.291 2.387-1.762 4.537-3.801 6.271H87.63c-2.123-1.817-3.648-4.107-3.842-6.646-.084-.915-.112-2.137-.112-4.051V11.946c0-1.901.03-3.122.112-4.037.194-2.54 1.72-4.829 3.842-6.646H72.078zm135.679 0 2.538 1.153c5.44 2.455 8.186 4.897 10.295 7.741v41.817c0 .916 0 1.665-.055 2.275-.029.444-.042.82-.097 1.153a7.385 7.385 0 0 1-.458 1.54c-.639 1.456-1.748 2.51-3.094 3.662l-.028.029h12.986c-1.47-1.249-2.637-2.304-3.261-3.968a9.085 9.085 0 0 1-.305-1.18c-.055-.402-.11-.902-.124-1.498a40.901 40.901 0 0 1-.043-2.011V15.86l41.25 46.604V9.936c0-.805.014-1.457.028-2.026.042-.707.097-1.263.18-1.721a6.65 6.65 0 0 1 .375-1.192c.639-1.485 1.79-2.567 3.163-3.733l-13.015-.001.03.014c1.345 1.152 2.482 2.233 3.12 3.69.167.403.306.806.404 1.278.028.097.027.222.054.347.041.333.07.72.098 1.192.028.583.04 1.29.04 2.15v34.993L223.49 1.263h-15.734zm100.034 0c2.012 1.72 3.481 3.871 3.787 6.258.139.943.153 2.247.153 4.425v37.988c0 2.178-.014 3.483-.139 4.426-.319 2.387-1.775 4.537-3.801 6.271h15.54c-2.124-1.817-3.636-4.107-3.83-6.646-.097-.915-.098-2.137-.098-4.051V11.946c0-1.901.001-3.122.098-4.037.194-2.54 1.706-4.829 3.83-6.646h-15.54zm50.669 0c4.065 1.318 6.035 4.814 6.271 6.646.222 1.11.223 2.4.223 4.037v37.988c0 1.678-.001 2.955-.223 4.051-.236 1.846-2.206 5.328-6.271 6.646h37.572l6.077-16.607c-2.525 2.817-5.19 5.3-7.77 7.298-.403.32-.818.624-1.22.916-2.623 1.817-6.522 3.357-12.821 3.357-7.34 0-7.686-1.914-7.686-7.922V30.29h14.319c2.636.069 5.008 1.47 6.646 3.482V22.02c-1.638 1.997-4.01 3.411-6.646 3.467h-14.32V6.133h12.446c4.301 0 7.228 2.885 9.046 6.409V1.262h-35.643zm73.784 0c2.04 1.748 3.303 3.94 3.552 6.382.125.93.153 2.22.153 4.3v37.989c0 4.245-.001 5.994-3.664 8.395l-3.469 2.302h38.294l6.106-16.705-.015.015a57.507 57.507 0 0 1-8.185 7.7c-.167.126-.333.25-.5.389a5.03 5.03 0 0 0-.444.304c-2.636 1.763-6.563 3.261-12.792 3.261-7.326 0-7.688-1.914-7.688-7.922V11.946c0-2.026.03-3.288.126-4.217.25-2.47 1.748-4.704 3.83-6.466h-15.304z"/></svg>