<svg width="790" height="353" viewBox="0 0 790 353" fill="none" xmlns="http://www.w3.org/2000/svg">
<path opacity="0.6" d="M70.7967 314.183C109.164 325.906 163.122 325.89 204.998 325.89C295.009 325.89 389.85 319.103 474.221 299.982C493.289 295.661 522.414 289.38 533.047 277.817C545.467 264.309 515.685 250.61 499.783 244.424C422.652 214.423 317.187 214.645 228.43 216.885C185.095 217.979 141.618 220.404 98.8169 224.562C73.636 227.008 33.2182 229.171 14.1011 241.066C-13.5532 258.272 36.7786 285.918 57.6879 294.417C106.947 314.439 168.349 324.857 224.006 337.117C242.515 341.194 260.567 345.562 280.21 347" stroke="#D2A7ED" stroke-width="12" stroke-linecap="round"/>
<path opacity="0.6" d="M553 264C597.5 253 631.731 222.127 637.414 188.898C641.634 164.219 639.582 135.184 621.374 119.793C613.929 113.501 584.709 95.836 581.217 115.93C571.432 172.224 651.401 162.955 674.53 154.132C701.8 143.728 725.646 128.439 736.258 94.3655C741.028 79.0467 743.95 62.7641 747.633 47.0625" stroke="#D2A7ED" stroke-width="12" stroke-linecap="round"/>
<path opacity="0.6" d="M783.167 64.4081C785.081 45.5896 778.872 23.4842 764.805 10.0356C750.236 -3.89297 726.091 26.7641 710.268 30.0676" stroke="#D2A7ED" stroke-width="12" stroke-linecap="round"/>
</svg>
