<svg width="471" height="197" viewBox="0 0 471 197" fill="none" xmlns="http://www.w3.org/2000/svg">
<path opacity="0.6" d="M211.338 69.3042C198.12 71.1349 193.426 71.6872 179.719 74.2658C164.256 77.1748 145.882 83.2117 133.281 88.9368C119.778 95.0719 106.999 103.173 97.3252 111.928C89.887 118.66 79.9769 129.115 81.1841 138.879C82.0103 145.561 92.0207 152.042 101.585 154.33C109.716 156.276 115.055 151.58 116.291 147.172C120.165 133.355 85.4041 124.866 70.548 126.813C47.44 129.842 39.9669 146.481 35.03 160.058" stroke="#FFDC3E" stroke-width="12" stroke-linecap="round"/>
<path opacity="0.6" d="M19.8377 152.539C19.444 160.96 18.9048 169.345 18.2889 177.729C17.6106 186.962 21.571 185.698 32.1315 182.756C44.0086 179.447 55.1872 175.133 67.093 171.941" stroke="#FFDC3E" stroke-width="12" stroke-linecap="round"/>
<path opacity="0.6" d="M234.533 61.5489C265.677 60.9456 296.853 61.0618 327.966 59.739C358.115 58.4572 417.695 57.0608 449.689 43.5634C481.033 30.3404 454.942 20.5123 435.176 16.0762C386.17 5.07777 316.014 5.47309 268.241 6.46128C238.804 7.07018 209.197 7.54706 180.092 11.3253C135.024 17.1758 136.506 25.0144 175.41 38.2469C200.022 46.6182 296.143 68.2066 322.147 73.9916C364.948 83.5134 354.815 80.8424 383.811 87" stroke="#FFDC3E" stroke-width="12" stroke-linecap="round"/>
</svg>
