<svg width="221" height="192" viewBox="0 0 221 192" fill="none" xmlns="http://www.w3.org/2000/svg">
<path opacity="0.6" d="M200.334 173.816C164.664 186.671 126.304 153.844 111.3 125.708C106.162 116.073 98.4334 95.5001 116.494 90.9716C127.615 88.1832 153.245 91.8329 158.341 103.851C161.657 111.672 150.437 120.169 145.218 122.888C126.837 132.465 106.295 125.939 90.4077 117.41C75.917 109.631 62.9189 98.5556 54.9354 83.5759C51.3762 76.8978 48.9708 68.0103 49.0944 59.9539" stroke="#B9DD8B" stroke-width="12" stroke-linecap="round"/>
<path opacity="0.6" d="M83.9955 45.6C73.8386 37.1072 63.601 29.0329 52.648 21.6785C46.567 17.5953 38.3147 8.7697 32.1046 16.9241C23.4658 28.2675 15.9168 40.6771 8.11858 52.6598" stroke="#B9DD8B" stroke-width="12" stroke-linecap="round"/>
</svg>
