<svg width="264" height="264" viewBox="0 0 264 264" fill="none" xmlns="http://www.w3.org/2000/svg">
<path d="M154.797 3.2209C156.137 -0.82818 162.159 0.402142 161.804 4.6526L158.822 40.3094C154.971 86.3518 183.171 129.035 227.034 143.553L261.003 154.797C265.052 156.138 263.822 162.159 259.571 161.804L223.914 158.822C177.872 154.971 135.189 183.172 120.67 227.034L109.427 261.003C108.086 265.053 102.064 263.822 102.42 259.571L105.402 223.914C109.253 177.872 81.0522 135.189 37.1893 120.671L3.22049 109.427C-0.828588 108.087 0.401733 102.065 4.65219 102.42L40.3089 105.402C86.3514 109.253 129.035 81.0526 143.553 37.1897L154.797 3.2209Z" fill="#F2994A"/>
</svg>
