<svg width="229" height="234" viewBox="0 0 229 234" fill="none" xmlns="http://www.w3.org/2000/svg">
<path d="M5.67742 179.755C9.63944 186.052 15.3424 190.611 21.7829 193.191C31.4756 197.075 42.8192 196.471 52.3165 190.599C52.3412 190.589 52.3654 190.577 52.389 190.564C52.4117 190.55 52.4343 190.537 52.4561 190.523L52.4897 190.501C52.5127 190.486 52.5348 190.471 52.5566 190.458L86.344 169.231L96.125 207.915C96.1334 207.956 96.1456 207.99 96.1558 208.027C96.1608 208.044 96.1649 208.061 96.1691 208.079C100.83 226.167 119.312 237.146 137.433 232.568C155.57 227.997 166.614 209.532 162.124 191.385L162.115 191.341C162.109 191.304 162.103 191.276 162.089 191.243L152.362 152.561L192.173 155.209C210.874 156.453 227.123 142.237 228.371 123.53C229.621 104.824 215.427 88.581 196.716 87.3149L156.925 84.6206L171.759 47.5523C178.716 30.1437 170.232 10.3054 152.836 3.33504C135.441 -3.63528 115.606 4.85559 108.611 22.267L93.741 59.2848L63.0982 33.7559C63.0843 33.7503 63.0685 33.7405 63.0534 33.7288C63.0336 33.714 63.0144 33.6959 63.0002 33.68C48.5988 21.7517 27.1796 23.725 15.1937 38.0927C3.20812 52.4595 5.1066 73.874 19.3942 85.9034C19.4076 85.9141 19.419 85.9251 19.4298 85.9359L19.4789 85.9815L19.5017 86.0013L50.1098 111.571L16.3631 132.833C16.3489 132.846 16.3308 132.857 16.3127 132.868C16.2944 132.879 16.2764 132.89 16.2622 132.902C0.467984 142.921 -4.28434 163.925 5.67742 179.755Z" fill="#2F80ED"/>
</svg>
