<svg width="218" height="218" viewBox="0 0 218 218" fill="none" xmlns="http://www.w3.org/2000/svg">
<path d="M109 0C80.073 0 56.6234 23.4498 56.6234 52.3766C56.6234 54.722 54.722 56.6234 52.3766 56.6234C23.4498 56.6234 0 80.073 0 109C0 137.927 23.4498 161.377 52.3766 161.377C54.722 161.377 56.6234 163.278 56.6234 165.623C56.6234 194.55 80.073 218 109 218C137.927 218 161.377 194.55 161.377 165.623C161.377 163.278 163.278 161.377 165.623 161.377C194.55 161.377 218 137.927 218 109C218 80.073 194.55 56.6234 165.623 56.6234C163.278 56.6234 161.377 54.722 161.377 52.3766C161.377 23.4498 137.927 0 109 0Z" fill="#6FCF97"/>
</svg>
