<svg width="209" height="190" viewBox="0 0 209 190" fill="none" xmlns="http://www.w3.org/2000/svg">
<path d="M107.272 177.545C133.062 165.402 170.708 145.824 188.494 127.598C201.797 113.984 209.114 95.2094 208.521 76.2112C207.786 33.0636 159.675 5.46997 121.768 26.3832C119.638 27.5492 117.615 28.9121 115.538 30.3117C114.691 30.883 113.834 31.4601 112.957 32.0324C112.381 31.1575 111.826 30.286 111.278 29.4238C109.932 27.3112 108.622 25.2536 107.135 23.334C80.7359 -10.9792 25.6087 -4.89797 7.70082 34.3648C-0.431443 51.5448 -1.22209 71.6799 5.53675 89.4735C14.5622 113.286 41.2549 146.272 60.0487 167.704C65.2851 173.677 80.146 189.49 80.146 189.49C80.146 189.49 100.086 180.929 107.272 177.545Z" fill="#DA291C"/>
</svg>
