<svg width="211" height="211" viewBox="0 0 211 211" fill="none" xmlns="http://www.w3.org/2000/svg">
<path d="M65.4078 3.96832C38.4957 14.5753 25.278 44.9903 35.8849 71.9022C36.7449 74.0843 35.6732 76.5504 33.4911 77.4104C6.57916 88.0173 -6.63877 118.432 3.9682 145.344C14.5752 172.256 44.9903 185.475 71.9022 174.868C74.0843 174.008 76.5503 175.079 77.4102 177.261C88.0171 204.173 118.432 217.391 145.344 206.784C172.256 196.177 185.474 165.762 174.867 138.85C174.007 136.668 175.079 134.202 177.261 133.342C204.173 122.735 217.391 92.3201 206.784 65.4079C196.177 38.4958 165.762 25.2782 138.85 35.8852C136.668 36.745 134.202 35.6731 133.342 33.4911C122.735 6.57914 92.3199 -6.63865 65.4078 3.96832Z" fill="#6FCF97"/>
</svg>
