<svg width="264" height="264" viewBox="0 0 264 264" fill="none" xmlns="http://www.w3.org/2000/svg">
<path d="M39.8869 41.2392C9.57372 51.5926 -6.60694 84.5594 3.74642 114.873C14.0999 145.186 47.0666 161.366 77.3797 151.013C47.0666 161.366 30.8857 194.333 41.2393 224.646C51.5928 254.96 84.5594 271.14 114.873 260.787C145.186 250.433 161.367 217.467 151.013 187.154C161.367 217.467 194.333 233.648 224.646 223.294C254.96 212.94 271.14 179.974 260.787 149.661C250.433 119.347 217.467 103.167 187.154 113.52C217.467 103.167 233.648 70.2005 223.294 39.8869C212.941 9.5737 179.974 -6.60712 149.661 3.7464C119.347 14.0999 103.167 47.0665 113.52 77.3797C103.167 47.0665 70.2006 30.8857 39.8869 41.2392Z" fill="#C7ADEA"/>
</svg>
