<svg width="190" height="104" viewBox="0 0 190 104" fill="none" xmlns="http://www.w3.org/2000/svg">
<path opacity="0.6" d="M6.00044 88.1676C13.7329 76.5996 22.1371 65.2021 33.6138 57.0544C42.6356 50.6497 54.6873 44.6824 65.7949 48.9319C70.6768 50.7996 78.7821 55.0513 78.9358 61.2499C79.0275 64.946 75.392 71.4543 71.3488 72.0385C68.8595 72.3982 65.4276 68.7251 64.3234 66.8487C60.3522 60.1002 67.5068 50.9683 71.7733 46.4081C82.8702 34.5471 98.0659 30.1346 113.601 27.3757C125.471 25.2676 137.186 24.2416 149.165 25.6508" stroke="#5CC4FF" stroke-width="12" stroke-linecap="round"/>
<path opacity="0.6" d="M151.15 6C160.742 7.12841 170.152 8.90126 179.661 10.561C184.787 11.4557 184.478 11.5099 181.479 16.2418C176.562 23.9984 169.15 32.3947 165.598 40.9272" stroke="#5CC4FF" stroke-width="12" stroke-linecap="round"/>
</svg>
