<svg width="225" height="126" viewBox="0 0 225 126" fill="none" xmlns="http://www.w3.org/2000/svg">
<path opacity="0.6" d="M218.171 114.288C201.891 120.423 184.767 121.906 167.86 117.006C154.658 113.179 150.434 97.3668 151.245 84.7852C152.255 69.1284 175.057 66.8819 172.363 82.1455C168.978 101.33 128.678 96.135 116.928 92.3939C93.3785 84.8954 70.2802 71.596 52.2544 54.7386C43.8102 46.8416 36.8475 34.9838 29.5059 27.6422" stroke="#B9DD8B" stroke-width="12" stroke-linecap="round"/>
<path opacity="0.6" d="M7.96233 42C5.69776 33.8358 5.25509 24.5658 7.36382 16.3029C8.05525 13.5936 10.8831 6 14.6656 6C24.1853 6 32.7698 11.8877 41 16.0223" stroke="#B9DD8B" stroke-width="12" stroke-linecap="round"/>
</svg>
