<svg width="241" height="155" viewBox="0 0 241 155" fill="none" xmlns="http://www.w3.org/2000/svg">
<path opacity="0.6" d="M6.76172 146.838C31.9804 149.697 55.9738 148.181 79.6004 138.037C94.1186 131.804 112.436 122.728 114.05 104.971C114.66 98.2549 112.34 88.3149 107.051 83.5551C104.758 81.4913 100.637 81.1612 98.8368 83.9742C95.3722 89.3876 96.1585 97.7001 101.561 101.409C108.152 105.933 117.227 106.733 124.904 107.527C137.57 108.837 151.091 109.672 163.335 105.432C192.993 95.162 206.298 61.1907 211.95 32.9285" stroke="#D2A7ED" stroke-width="12" stroke-linecap="round"/>
<path opacity="0.6" d="M188 28.3196C193.905 20.7616 202.352 15.6022 210.697 10.898C217.678 6.96226 220.995 2.16372 223.618 10.963C226.141 19.4256 230.13 25.907 235 33" stroke="#D2A7ED" stroke-width="12" stroke-linecap="round"/>
</svg>
