<svg width="449" height="191" viewBox="0 0 449 191" fill="none" xmlns="http://www.w3.org/2000/svg">
<path opacity="0.6" d="M238 62.8638C251.218 64.6945 255.912 65.2468 269.619 67.8254C285.082 70.7343 303.456 76.7712 316.057 82.4964C329.56 88.6315 342.339 96.7326 352.013 105.488C359.451 112.22 369.361 122.674 368.154 132.439C367.328 139.121 357.317 145.601 347.753 147.89C339.622 149.835 334.283 145.14 333.047 140.731C329.173 126.914 363.934 118.426 378.79 120.373C401.898 123.401 409.371 140.04 414.308 153.617" stroke="#281515" stroke-width="12" stroke-linecap="round"/>
<path opacity="0.6" d="M429.5 146.099C429.894 154.52 430.433 162.905 431.049 171.288C431.727 180.521 427.767 179.258 417.206 176.316C405.329 173.007 394.151 168.692 382.245 165.501" stroke="#281515" stroke-width="12" stroke-linecap="round"/>
<path opacity="0.6" d="M177.927 82.1225C154.617 81.2958 131.285 81.455 107.999 79.6423C85.4341 77.8858 40.8434 75.9723 16.8978 57.4758C-6.56082 39.3554 12.966 25.8872 27.7598 19.8081C64.4375 4.73621 116.944 5.27794 152.699 6.63212C174.73 7.46654 196.889 8.12004 218.672 13.2976C252.402 21.315 251.293 32.0568 222.176 50.1902C203.755 61.662 131.816 91.246 112.354 99.1737C80.3201 112.222 87.904 108.562 66.2025 117" stroke="#281515" stroke-width="12" stroke-linecap="round"/>
</svg>
