<svg width="223" height="376" viewBox="0 0 223 376" fill="none" xmlns="http://www.w3.org/2000/svg">
<path opacity="0.6" d="M130.114 93.4707C109.918 97.0374 98.5203 100.734 77.9949 97.4463C66.5819 95.6182 43.6816 87.8009 33.1424 77.6392C24.6305 69.4321 21.8898 58.7087 29.3005 46.473C33.842 38.9748 39.8796 33.8523 45.7326 28.9376C62.1995 15.1103 76.7123 7.42753 95.7461 6.18421C115.781 4.87549 129.916 10.5057 147.634 24.1811C156.831 31.2795 171.325 44.1625 174.481 62.2336C177.289 78.3112 168.137 86.4217 160.687 92.4768C155.187 96.9477 149.262 100.239 143.26 102.771C116.017 114.264 128.118 104.09 100.12 112" stroke="#FF9393" stroke-width="12" stroke-linecap="round"/>
<path opacity="0.6" d="M131.369 149.213C144 178.547 163.897 212.297 156.464 244.781C152.745 261.03 137.725 275.179 117.49 276.13C93.2267 277.271 90.2968 244.932 107.176 249.18C137.173 256.729 151.215 287.954 131.268 308.576C117.479 322.833 96.7024 333.756 76.0449 339.179" stroke="#FF9393" stroke-width="12" stroke-linecap="round"/>
<path opacity="0.6" d="M72.0643 369.778C65.3957 366.595 48.2043 360.734 44.5261 355.069C39.9839 348.073 50.1161 329.409 51.9022 323" stroke="#FF9393" stroke-width="12" stroke-linecap="round"/>
</svg>
