<svg width="668" height="364" viewBox="0 0 668 364" fill="none" xmlns="http://www.w3.org/2000/svg">
<path opacity="0.6" d="M34.4861 317.919C51.3532 332.236 75.0743 332.217 93.4842 332.217C133.055 332.217 174.749 323.928 211.841 300.574C220.223 295.295 233.027 287.625 237.702 273.501C243.162 257.004 230.069 240.271 223.078 232.717C189.17 196.074 142.805 196.345 103.785 199.081C84.7341 200.417 65.6207 203.378 46.8044 208.457C35.7343 211.445 17.9658 214.087 9.56145 228.615C-2.59598 249.63 19.531 283.396 28.7232 293.776C50.3787 318.231 77.3724 330.955 101.84 345.929C109.977 350.908 117.913 356.244 126.549 358" stroke="#D2A7ED" stroke-width="12" stroke-linecap="round"/>
<path opacity="0.6" d="M277.002 272.294C348.333 272.542 408.235 245.27 424.49 206.307C436.562 177.368 439.906 141.157 415.185 116.682C405.078 106.675 363.828 76.0165 353.912 99.5609C326.13 165.523 451.959 178.832 489.731 175.155C534.267 170.818 574.599 159.439 598.671 120.96C609.493 103.661 617.67 84.6106 626.895 66.5068" stroke="#D2A7ED" stroke-width="12" stroke-linecap="round"/>
<path opacity="0.6" d="M661.61 88.4081C663.524 69.5896 657.315 47.4842 643.248 34.0356C628.68 20.107 604.535 50.7641 588.711 54.0676" stroke="#D2A7ED" stroke-width="12" stroke-linecap="round"/>
</svg>
