<?xml version="1.0" encoding="utf-8"?>
<!-- Generator: Adobe Illustrator 25.0.0, SVG Export Plug-In . SVG Version: 6.00 Build 0)  -->
<svg version="1.1" id="Layer_1" xmlns="http://www.w3.org/2000/svg" xmlns:xlink="http://www.w3.org/1999/xlink" x="0px" y="0px"
	 viewBox="0 0 1000 353.1" style="enable-background:new 0 0 1000 353.1;" xml:space="preserve">
<style type="text/css">
	.st0{fill:#313131;}
</style>
<path class="st0" d="M821.2,0c-39.9,0-76.9,13.1-107.1,35.3C683.9,13.1,646.9,0,607.1,0S530.2,13.1,500,35.3
	C469.8,13.1,433.4,0,392.9,0c-39.9,0-76.9,13.1-107.1,35.3C256.3,13.1,219.2,0,178.8,0C80.3,0,0,79.2,0,176.5
	c0,97.4,80.3,176.5,178.8,176.5c39.9,0,76.9-13.1,107.1-35.3c30.2,22.2,67.2,35.3,107.1,35.3S469.8,340,500,317.8
	c29.6,22.2,66.6,35.3,107.1,35.3c39.9,0,76.9-13.1,107.1-35.3c29.6,22.2,66.6,35.3,107.1,35.3c98.5,0,178.8-79.2,178.8-176.5
	S919.7,0,821.2,0L821.2,0z M714.1,267.7c-21.6-24.5-34.7-56.4-34.7-91.1s13.1-66.6,34.7-91.1c21.6,24.5,34.7,56.4,34.7,91.1
	S735.8,243.2,714.1,267.7L714.1,267.7z M500,267.7c-21.6-24.5-34.7-56.4-34.7-91.1s13.1-66.6,34.7-91.1
	c21.6,24.5,34.7,56.4,34.7,91.1S521.6,243.2,500,267.7z M285.9,267.7c-21.6-24.5-34.7-56.4-34.7-91.1s13.1-66.6,34.7-91.1
	c21.6,24.5,34.7,56.4,34.7,91.1C321.2,211.3,307.5,243.2,285.9,267.7L285.9,267.7z M37,176.5C37,99.7,100.8,37,178.8,37
	c29,0,56.4,8.5,79.2,23.9c-27.3,30.8-43.9,71.2-43.9,115.6c0,44.4,16.5,84.9,43.9,115.6c-22.8,14.8-49.5,23.9-79.2,23.9
	C100.8,316.1,37,253.4,37,176.5L37,176.5z M313.8,292.1c27.3-30.8,43.9-71.2,43.9-115.6s-16.5-84.9-43.9-115.6
	C336.6,46.1,363.3,37,392.9,37c29.6,0,56.4,8.5,79.2,23.9c-27.3,30.8-44.4,71.2-44.4,115.6c0,44.4,16.5,84.9,44.4,115.6
	c-22.8,14.8-49.5,23.9-79.2,23.9C363.9,316.1,336.6,306.9,313.8,292.1z M527.9,292.1c27.3-30.8,44.4-71.2,44.4-115.6
	s-16.5-84.9-44.4-115.6C550.7,46.1,577.4,37,607.1,37c29.6,0,56.4,8.5,79.2,23.9c-27.3,30.8-44.4,71.2-44.4,115.6
	c0,44.4,16.5,84.9,44.4,115.6c-22.8,14.8-49.5,23.9-79.2,23.9S550.7,306.9,527.9,292.1z M821.2,316.1c-29,0-56.4-8.5-79.2-23.9
	c27.3-30.8,44.4-71.2,44.4-115.6S769.9,91.7,742,60.9C764.8,46.1,791.6,37,821.2,37c78,0,141.8,62.6,141.8,139.5
	S899.2,316.1,821.2,316.1z"/>
</svg>
