<svg xmlns="http://www.w3.org/2000/svg" viewBox="-0.5 -0.5 26 26" id="Youtube--Streamline-Font-Awesome.svg" height="26" width="26"><desc>Youtube Streamline Icon: https://streamlinehq.com</desc><!--! Font Awesome Free 6.5.2 by @fontawesome - https://fontawesome.com License - https://fontawesome.com/license/free (Icons: CC BY 4.0, Fonts: SIL OFL 1.1, Code: MIT License) Copyright 2024 Fonticons, Inc.--><path d="M24.238046875000002 6.582100694444445c-0.28176649305555557 -1.0609592013888889 -1.1119618055555553 -1.896536458333333 -2.1660546875 -2.1800998263888887C20.161371527777774 3.8867274305555557 12.5 3.8867274305555557 12.5 3.8867274305555557s-7.661323784722222 0 -9.5719921875 0.5152734375c-1.0540928819444444 0.2836111111111111 -1.8842881944444445 1.119140625 -2.1660546875 2.1800998263888887C0.24999999999999997 8.505147569444444 0.24999999999999997 12.51740451388889 0.24999999999999997 12.51740451388889s0 4.012261284722222 0.511953125 5.935308159722222c0.28176649305555557 1.060954861111111 1.1119618055555553 1.8617230902777777 2.1660546875 2.145286458333333C4.838676215277777 21.113272569444444 12.5 21.113272569444444 12.5 21.113272569444444s7.661323784722222 0 9.5719921875 -0.5152734375c1.0540928819444444 -0.28356336805555554 1.8842881944444445 -1.0843272569444444 2.1660546875 -2.145286458333333C24.75 16.52966579861111 24.75 12.51740451388889 24.75 12.51740451388889s0 -4.012256944444444 -0.511953125 -5.935303819444445ZM9.994301215277778 16.160234374999998V8.874574652777778l6.403385416666666 3.6429210069444444 -6.403385416666666 3.642738715277778Z" stroke-width="1"></path></svg>