<svg xmlns="http://www.w3.org/2000/svg" viewBox="-0.5 -0.5 26 26" id="Instagram--Streamline-Font-Awesome.svg" height="26" width="26"><desc>Instagram Streamline Icon: https://streamlinehq.com</desc><!--! Font Awesome Free 6.5.2 by @fontawesome - https://fontawesome.com License - https://fontawesome.com/license/free (Icons: CC BY 4.0, Fonts: SIL OFL 1.1, Code: MIT License) Copyright 2024 Fonticons, Inc.--><path d="M12.502734375000001 6.219910714285715c-3.476188616071429 0 -6.280089285714285 2.8039062500000003 -6.280089285714285 6.280089285714285s2.8039006696428572 6.280089285714285 6.280089285714285 6.280089285714285S18.782823660714286 15.976183035714287 18.782823660714286 12.5s-2.8039062500000003 -6.280089285714285 -6.280089285714285 -6.280089285714285Zm0 10.36296875c-2.24640625 0 -4.082879464285714 -1.8310100446428574 -4.082879464285714 -4.082879464285714s1.8310100446428574 -4.082879464285714 4.082879464285714 -4.082879464285714S16.58560825892857 10.248130580357143 16.58560825892857 12.5s-1.8364732142857143 4.082879464285714 -4.082873883928571 4.082879464285714Zm8.001780133928571 -10.619854910714286c0 0.8143861607142857 -0.6558816964285714 1.4648046875000003 -1.4648046875000003 1.4648046875000003 -0.8143917410714286 0 -1.464810267857143 -0.6558816964285714 -1.464810267857143 -1.4648046875000003s0.6558872767857143 -1.464810267857143 1.464810267857143 -1.464810267857143 1.4648046875000003 0.6558872767857143 1.4648046875000003 1.464810267857143Zm4.159402901785715 1.4866685267857145c-0.09291852678571429 -1.9621875 -0.5411049107142858 -3.700279017857143 -1.978588169642857 -5.132293526785714 -1.4320089285714286 -1.4320145089285714 -3.1701060267857146 -1.8802008928571428 -5.132287946428572 -1.9785825892857145 -2.022310267857143 -0.11477678571428572 -8.083772321428572 -0.11477678571428572 -10.106082589285714 0 -1.95671875 0.09291852678571429 -3.694810267857143 0.5411049107142858 -5.132293526785714 1.9731194196428572S0.4344642857142857 5.482042410714286 0.3360825892857143 7.444229910714286c-0.11477678571428572 2.0223046875 -0.11477678571428572 8.083766741071429 0 10.106077008928573 0.09291852678571429 1.9621875 0.5411049107142858 3.700279017857143 1.9785825892857145 5.132293526785714s3.1701060267857146 1.8802008928571428 5.132293526785714 1.9785825892857145c2.022310267857143 0.11477678571428572 8.083772321428572 0.11477678571428572 10.106082589285714 0 1.9621819196428574 -0.09291852678571429 3.700279017857143 -0.5411049107142858 5.132287946428572 -1.9785825892857145 1.4320145089285714 -1.4320145089285714 1.8802008928571428 -3.1701060267857146 1.978588169642857 -5.132293526785714 0.11477678571428572 -2.022310267857143 0.11477678571428572 -8.078303571428572 0 -10.100613839285714Zm-2.6126060267857145 12.270496651785715c-0.42632812500000006 1.0712779017857144 -1.2516462053571429 1.8965959821428573 -2.328387276785714 2.328387276785714 -1.6123828125 0.6394866071428572 -5.438376116071429 0.49191406249999997 -7.220189732142857 0.49191406249999997s-5.613275669642857 0.142109375 -7.220189732142857 -0.49191406249999997c-1.0712779017857144 -0.4263225446428572 -1.8966015625 -1.2516462053571429 -2.328392857142857 -2.328387276785714 -0.6394866071428572 -1.6123828125 -0.49190848214285715 -5.438370535714286 -0.49190848214285715 -7.220189732142857s-0.142109375 -5.613275669642857 0.49190848214285715 -7.220189732142857c0.42632812500000006 -1.0712779017857144 1.2516462053571429 -1.8965959821428573 2.328392857142857 -2.328387276785714 1.612377232142857 -0.6394866071428572 5.438370535714286 -0.49191406249999997 7.220189732142857 -0.49191406249999997s5.613270089285715 -0.142109375 7.220189732142857 0.49191406249999997c1.0712779017857144 0.4263225446428572 1.8965959821428573 1.2516462053571429 2.328387276785714 2.328387276785714 0.6394866071428572 1.6123828125 0.49191406249999997 5.438370535714286 0.49191406249999997 7.220189732142857s0.14757254464285713 5.613275669642857 -0.49191406249999997 7.220189732142857Z" stroke-width="1"></path></svg>