<svg xmlns="http://www.w3.org/2000/svg" viewBox="-0.5 -0.5 26 26" id="Facebook--Streamline-Font-Awesome.svg" height="26" width="26"><desc>Facebook Streamline Icon: https://streamlinehq.com</desc><!--! Font Awesome Free 6.5.2 by @fontawesome - https://fontawesome.com License - https://fontawesome.com/license/free (Icons: CC BY 4.0, Fonts: SIL OFL 1.1, Code: MIT License) Copyright 2024 Fonticons, Inc.--><path d="M24.75 12.545458984375c0 -6.7662109375 -5.4837890625000005 -12.25 -12.25 -12.25S0.25 5.779248046875 0.25 12.545458984375c0 5.7421875 3.95732421875 10.565624999999999 9.2927734375 11.89111328125V16.287451171875h-2.5265625v-3.7419921874999997h2.5265625v-1.6125976562500002c0 -4.1678710937500005 1.8853515625000001 -6.10107421875 5.9814453125 -6.10107421875 0.7751953125 0 2.1150390625 0.153125 2.6653320312499997 0.30625v3.387890625c-0.287109375 -0.0287109375 -0.7895507812500001 -0.0478515625 -1.4164062499999999 -0.0478515625 -2.009765625 0 -2.7849609375 0.76083984375 -2.7849609375 2.7371093749999997v1.3302734375h4.000390625l-0.6890625 3.7419921874999997H13.9833984375v8.41708984375c6.067578125 -0.73212890625 10.7666015625 -5.8953125 10.7666015625 -12.15908203125Z" stroke-width="1"></path></svg>