<svg width="155" height="19" viewBox="0 0 155 19" fill="none" xmlns="http://www.w3.org/2000/svg">
<g clip-path="url(#clip0_125_282)">
<path d="M17.4879 0.907049C17.4827 0.907049 17.4776 0.907049 17.4776 0.907049C17.4725 0.907049 17.4725 0.907049 17.4674 0.907049C17.4571 0.907049 17.452 0.907049 17.4418 0.907049C17.3906 0.912384 17.3189 0.928391 17.237 0.944398C16.8787 1.01376 16.2746 1.16316 16.1159 1.20584C11.8668 2.35833 9.24051 5.34625 8.79513 5.89048L10.0801 0H4.14671L0 19H5.93338L8.42653 7.57652L8.53404 7.07498C8.67738 6.89357 8.99478 6.4934 9.34802 6.07723C9.41969 6.00253 9.55792 5.85313 9.73198 5.68239C10.1876 5.18085 10.7559 4.60994 11.4265 4.07105H11.4214C11.4214 4.07105 11.9743 3.58551 12.9162 2.97192C13.1005 2.8492 13.2848 2.72648 13.4691 2.61443C13.6176 2.52906 13.7609 2.44903 13.9094 2.37433C14.5954 1.99017 15.394 1.60601 16.2797 1.28587C16.4691 1.22185 16.7455 1.13114 17.0118 1.05111C17.1346 1.01376 17.2473 0.981747 17.3394 0.960404H17.3343C17.3906 0.939062 17.4776 0.91772 17.4879 0.907049Z" fill="#E9E9E9"/>
<path d="M30.1789 0.549525L30.0868 0.544189H20.2166L18.9521 3.79889L18.9316 3.85225L18.6654 4.50319H28.1619C30.9878 4.50319 32.8615 6.70678 32.3393 9.42793L32.2983 9.65736C31.7762 12.3785 29.0629 14.5821 26.2319 14.5821H13.116L12.9265 15.105L11.703 18.4877H28.2182L28.341 18.4931C32.7232 18.5038 36.614 14.8115 37.1464 9.74807C37.6686 4.6846 34.5611 0.554861 30.1789 0.549525Z" fill="#E9E9E9"/>
<path d="M11.9231 15.3558C11.9284 15.3505 11.9284 15.3505 11.9231 15.3558Z" fill="#E9E9E9"/>
<path d="M9.09714 17.8901C12.8241 19.6562 18.952 17.3352 22.7915 12.7093C26.626 8.08334 26.7181 2.90249 22.9912 1.13642C19.2643 -0.62966 13.1312 1.69132 9.2968 6.31727C5.45725 10.9379 5.3651 16.1241 9.09714 17.8901ZM15.3223 4.54585C18.6858 2.90783 21.7267 3.75085 22.1106 6.42398C22.4946 9.0971 20.0834 12.5919 16.7199 14.2299C13.3565 15.868 10.3156 15.0249 9.9316 12.3518C9.54765 9.67868 11.964 6.18388 15.3223 4.54585Z" fill="#E9E9E9"/>
<path d="M11.9385 15.3558C11.9438 15.3505 11.9438 15.3505 11.9385 15.3558Z" fill="#E9E9E9"/>
<path d="M21.65 4.94606C23.1448 6.99492 21.8343 10.6551 18.7217 13.1148C15.6142 15.5745 11.877 15.9053 10.3873 13.8565C8.89242 11.8076 10.203 8.1474 13.3156 5.6877C16.4231 3.228 20.1551 2.89186 21.65 4.94606Z" fill="white"/>
<path d="M16.7251 14.23C20.0885 12.5919 22.4998 9.09713 22.1158 6.42401C21.7268 3.75088 18.691 2.90786 15.3275 4.54589C11.9641 6.18391 9.55283 9.67871 9.93678 12.3518C10.3207 15.025 13.3565 15.868 16.7251 14.23ZM15.5988 6.45602C17.6364 5.46361 19.4793 5.97048 19.7148 7.5925C19.9503 9.21452 18.4862 11.3327 16.4435 12.3198C14.406 13.3122 12.563 12.8054 12.3275 11.1833C12.0972 9.56133 13.5613 7.44844 15.5988 6.45602Z" fill="#E9E9E9"/>
<path d="M19.7148 7.59254C19.4793 5.97052 17.6363 5.46364 15.5988 6.45606C13.5613 7.44848 12.0972 9.5667 12.3275 11.1887C12.4146 11.7863 12.7217 12.2345 13.1774 12.5119C13.1466 13.371 12.6142 14.3901 11.6774 15.2224C11.534 15.3505 11.3907 15.4625 11.2422 15.5746C10.4948 16.1188 9.67057 16.4283 8.94873 16.4709C8.84634 16.4816 8.74395 16.4816 8.64669 16.4816C7.79687 16.4496 7.23885 16.0654 6.88049 15.5586C7.15694 15.9694 7.49482 16.3215 7.78663 16.583C7.78663 16.583 7.79175 16.5883 7.79687 16.5937C7.86854 16.6577 7.93509 16.7164 8.00164 16.7697C8.23713 16.9511 8.66204 17.2286 9.24054 17.378C9.29685 17.394 9.35316 17.4047 9.4146 17.4153C11.534 17.8529 13.6944 16.9351 13.6944 16.9351C16.2541 15.9267 17.2831 13.483 17.2831 13.483C17.6363 12.9441 18.0664 11.4235 18.0664 11.4235C18.0869 11.3221 18.1176 11.2261 18.1483 11.1354C19.2285 10.0576 19.8735 8.70767 19.7148 7.59254Z" fill="white"/>
<path d="M12.0408 10.8527C8.76443 9.26266 10.633 6.45615 10.633 6.45615C13.0084 2.32108 17.4879 0.907146 17.4879 0.907146C12.778 2.0703 9.63985 5.68783 9.67568 5.63981C8.86682 6.54152 8.23713 7.39521 7.75079 8.20088L9.42483 0.52832H4.54093L0.593872 18.5146H5.4829L6.39415 14.4435C6.65012 15.3932 7.24909 16.4123 8.6518 16.4604C8.74907 16.4604 8.84634 16.4604 8.95385 16.4497C9.67568 16.407 10.4999 16.0975 11.2473 15.5533C11.3958 15.4466 11.5443 15.3292 11.6825 15.2012C13.1518 13.8993 13.6227 12.1279 12.7371 11.2475C12.5477 11.0608 12.3071 10.9274 12.0408 10.8527Z" fill="#E9E9E9"/>
<path d="M23.3854 8.12081C23.3854 8.12081 22.1158 7.35248 20.1244 8.6597C20.1244 8.6597 18.4708 9.68947 18.0664 11.4129C18.0664 11.4129 17.6312 12.9282 17.278 13.4671C17.278 13.4671 16.2541 15.9108 13.6893 16.9192C13.6893 16.9192 11.5289 17.8369 9.40947 17.3994C9.34804 17.3887 9.29173 17.3727 9.23542 17.362C8.6518 17.2126 8.23201 16.9405 7.99652 16.7538C7.93509 16.7004 7.86342 16.6417 7.79175 16.5777C7.78663 16.5724 7.78663 16.5724 7.78663 16.5724C7.40779 16.2362 6.95728 15.7507 6.65524 15.1744C6.49654 14.8276 6.38391 14.4541 6.38391 14.4541C6.38903 14.4862 6.40439 14.5502 6.42487 14.6249C6.49654 14.9023 6.68596 15.4732 7.07503 16.0922C7.06479 16.0815 7.05455 16.0708 7.04943 16.0602L7.1979 16.2896C7.6484 16.9565 8.28321 17.5114 9.09719 17.8956C12.8241 19.6617 18.9572 17.3407 22.7916 12.7201C23.0168 12.448 23.2267 12.1705 23.4315 11.8984L23.4571 11.861C23.4571 11.861 25.1567 9.15057 23.3854 8.12081Z" fill="#E9E9E9"/>
<path d="M133.872 14.2622L133.447 16.1617H116.415L116.84 14.2622H133.872ZM131.963 2.44922C135.224 2.44922 134.932 3.87915 134.84 4.32734C134.748 4.77553 132.449 15.0305 132.449 15.0305H129.121L131.512 4.33268H120.116L120.536 2.44922C120.536 2.44922 128.707 2.44922 131.963 2.44922Z" fill="#E9E9E9"/>
<path d="M137.292 11.7811L137.712 9.89762H154.744L154.324 11.7811H147.49L147.106 13.4991H143.778L144.162 11.7811H137.292ZM151.529 3.2815H140.446L140.85 1.48341C140.85 1.48341 148.57 1.48875 151.939 1.48341C155.307 1.47808 155.031 2.98271 154.969 3.29751C154.913 3.60697 154.345 6.09335 154.345 6.09335H143.205L142.975 7.12312H154.212L153.812 8.92655H139.186L140.22 4.29526H151.304L151.529 3.2815ZM137.415 16.8339C137.512 16.423 138.347 12.6668 138.347 12.6668H141.638L141.388 13.7766H149.297L149.548 12.6668H152.875L151.55 18.5946C151.55 18.5946 143.517 18.5946 140.297 18.5946C137.082 18.5946 137.318 17.2447 137.415 16.8339ZM148.903 15.5587H140.988L140.712 16.7912H148.621L148.903 15.5587Z" fill="#E9E9E9"/>
<path d="M47.1189 1.77686H50.6717L48.6905 10.4899L56.4362 1.77686H59.7177L54.3372 7.80606L57.2143 18.8987H53.2929L51.3014 10.7193L47.7588 14.5769L46.7759 18.8987H43.223L47.1189 1.77686Z" fill="#E9E9E9"/>
<path d="M62.8149 1.77686H68.7637C69.8234 1.77686 70.7756 1.87823 71.6101 2.07565C72.4445 2.27306 73.0845 2.56652 73.5298 2.95602C74.5128 3.71367 75.1629 4.69542 75.4752 5.91193C75.7875 7.14445 75.7517 8.60106 75.3728 10.2818C74.7534 13.0083 73.5196 15.1211 71.6766 16.6151C69.8285 18.1411 67.5197 18.9041 64.7552 18.9041H58.9242L62.8149 1.77686ZM63.2194 16.6364H65.4975C66.803 16.6364 67.9651 16.0976 68.9838 15.0198C70.0435 13.894 70.8063 12.3146 71.2671 10.2818C71.7176 8.29693 71.6766 6.73895 71.1442 5.61314C70.6169 4.53535 69.6903 3.99646 68.3695 3.99646H66.0914L63.2194 16.6364Z" fill="#E9E9E9"/>
<path d="M80.3182 12.2559H86.9786L86.2158 15.6546H89.4615L90.214 12.2559H96.8232L97.2276 10.4258H80.7227L80.3182 12.2559Z" fill="#E9E9E9"/>
<path d="M96.0706 3.04667C94.929 2.26767 93.1986 1.87817 90.8847 1.87817C88.5554 1.87817 86.6509 2.26767 85.1561 3.04667C83.8199 3.75096 83.0366 4.626 82.796 5.69845C82.5657 6.73889 82.9598 7.60859 83.9786 8.30755C85.1202 9.08654 86.8557 9.48138 89.1799 9.48138C91.499 9.48138 93.3983 9.09188 94.8881 8.30755C96.2293 7.60859 97.0228 6.73889 97.2532 5.69845C97.4989 4.626 97.0996 3.75096 96.0706 3.04667ZM93.6543 5.69845C93.5263 6.28003 93.1014 6.75489 92.3898 7.12305C91.6475 7.50721 90.7106 7.69929 89.5844 7.69929C88.4325 7.69929 87.5775 7.50721 87.0195 7.12305C86.4769 6.75489 86.2772 6.28536 86.4052 5.69845C86.5383 5.07419 86.9581 4.58865 87.6595 4.23116C88.3915 3.85234 89.3335 3.65492 90.4803 3.65492C91.6219 3.65492 92.4717 3.847 93.0297 4.23116C93.5877 4.58865 93.7925 5.07952 93.6543 5.69845Z" fill="#E9E9E9"/>
<path d="M83.9837 13.9099H80.8251L80.1595 16.9085C80.1595 16.9085 79.7807 18.7866 82.8626 18.7866C85.9444 18.776 94.9699 18.7866 94.9699 18.7866L95.3795 16.9619H83.2977L83.9837 13.9099Z" fill="#E9E9E9"/>
<path d="M109.084 3.71897L112.463 8.75576L115.734 8.59569L111.306 1.77148H107.707L100.299 8.75576H103.683L109.084 3.71897Z" fill="#E9E9E9"/>
<path d="M109.402 9.66272L110.006 6.8562H106.76L106.161 9.66272H99.516L99.1116 11.5835H115.617L116.026 9.66272H109.402Z" fill="#E9E9E9"/>
<path d="M112.673 13.451C111.582 12.7947 109.924 12.4692 107.712 12.4692C105.48 12.4692 103.658 12.8 102.229 13.451C100.949 14.0432 100.202 14.7795 99.9716 15.6813C99.7515 16.5563 100.13 17.2873 101.103 17.8742C102.193 18.5305 103.857 18.8613 106.084 18.8613C108.306 18.8613 110.123 18.5305 111.552 17.8742C112.837 17.2873 113.594 16.551 113.814 15.6813C114.045 14.7795 113.661 14.0432 112.673 13.451ZM110.359 15.6813C110.236 16.1721 109.832 16.567 109.151 16.8764C108.439 17.2019 107.543 17.362 106.463 17.362C105.362 17.362 104.543 17.2019 104.011 16.8764C103.494 16.567 103.299 16.1721 103.427 15.6813C103.555 15.1584 103.96 14.7475 104.63 14.4487C105.332 14.1286 106.233 13.9685 107.328 13.9685C108.424 13.9685 109.233 14.1339 109.77 14.4487C110.297 14.7475 110.497 15.1584 110.359 15.6813Z" fill="#E9E9E9"/>
</g>
<defs>
<clipPath id="clip0_125_282">
<rect width="155" height="19" fill="white"/>
</clipPath>
</defs>
</svg>
