<svg width="140" height="30" viewBox="0 0 140 30" fill="none" xmlns="http://www.w3.org/2000/svg">
<g opacity="0.47" clip-path="url(#clip0_70_241)">
<path d="M81.4653 12.1723C81.4653 10.7256 81.431 9.27891 81.4653 7.8322C81.5685 5.36621 82.9441 3.45918 85.4545 3.22902C88.1369 2.96598 90.9225 3.03174 93.6049 3.45918C94.7397 3.62358 96.1153 4.87301 96.5968 5.95805C99.2448 11.9422 95.5651 18.1893 88.7903 17.9592C87.0365 17.8934 85.2826 17.8605 83.5287 17.9592C81.9812 18.0578 81.259 17.6304 81.431 16.0193C81.5341 14.7698 81.431 13.4546 81.4653 12.1723ZM82.9441 11.4819C82.9097 12.5011 82.9785 13.4875 82.9097 14.5068C82.8065 15.8549 83.288 16.4796 84.7667 16.3809C86.2799 16.2823 87.793 16.3481 89.3406 16.3481C94.3614 16.3481 97.4909 11.2517 95.118 6.45124C94.7053 5.59637 93.4329 4.77437 92.4356 4.60997C90.441 4.31406 88.3777 4.31406 86.3487 4.47845C84.2509 4.64285 83.116 5.92517 82.9785 7.93084C82.8753 9.14739 82.9441 10.2982 82.9441 11.4819Z" fill="white"/>
<path d="M81.4307 19.5365C81.4307 19.1091 81.7746 18.7474 82.2216 18.7474C84.6976 18.7474 86.8984 18.6817 89.0992 18.7474C95.5298 18.9447 100.619 12.2704 97.2492 5.36598C96.8021 4.44539 95.8393 2.99875 94.8764 2.66996C90.9906 1.35483 87.6549 1.45347 83.7003 2.7686C81.3275 3.55768 80.5366 5.95779 80.5366 8.32503C80.5366 13.5855 80.5366 18.8461 80.5366 24.0737C80.5366 26.5396 79.5394 27.3615 77.0978 26.9999C76.9947 26.9999 76.8915 26.9341 76.7883 26.8684C76.3757 26.5725 76.3413 25.9478 76.7539 25.6519C76.8227 25.619 76.8915 25.5861 76.9259 25.5861C79.0236 25.7505 78.9204 24.4354 78.9204 23.0874C78.886 18.4515 78.8516 13.8157 78.9204 9.17986C79.0923 3.36041 81.8434 0.697268 87.93 0.499998C89.6838 0.46712 91.4376 0.565755 93.157 0.828781C96.6646 1.38771 98.7622 3.45904 99.45 6.77975C100.378 11.2512 99.5876 15.2295 95.6673 18.2543C93.8448 19.6352 91.7815 20.227 89.4775 20.2598C87.7925 20.2598 86.0731 20.3256 84.3881 20.3256C83.3564 20.3256 82.9094 20.7201 82.9094 21.7065C82.9094 22.9887 82.9782 24.271 82.875 25.5532C82.5999 28.5123 79.9864 29.8603 76.8571 29.3014C76.6164 29.2685 76.2381 29.0712 76.2725 28.4465C76.3069 28.0191 76.7196 27.9205 76.9603 27.9205C78.439 27.8218 80.2615 28.2164 80.9149 26.5067C81.3963 25.2573 81.3619 23.8107 81.4651 22.4298C81.4995 21.5092 81.4651 20.5886 81.4307 19.5365Z" fill="white"/>
<path d="M130.055 21.0491C135.317 21.1149 134.388 20.4244 135.97 25.1918C136.486 26.737 137.277 27.9207 139.237 27.9535C139.306 27.9535 139.34 27.9864 139.409 28.0193C139.822 28.2494 139.89 28.8084 139.546 29.1372C139.443 29.2358 139.306 29.3344 139.168 29.3673C137.758 29.6632 136.108 28.7755 135.317 27.296C134.87 26.4411 134.491 25.5534 134.319 24.6328C133.976 22.9232 132.978 22.3642 131.225 22.4957C129.711 22.6273 128.198 22.5615 126.651 22.4957C124.244 22.43 122.628 20.7532 122.593 18.3531C122.559 16.0187 124.106 14.3419 126.445 14.1775C126.72 14.1447 127.029 14.1447 127.304 14.1447C131.053 14.1447 130.846 14.2762 129.711 10.8568C129.23 9.37731 128.852 7.83203 128.198 6.38539C128.061 6.0566 127.82 5.69494 127.545 5.33328C127.064 4.67572 125.998 4.67572 125.551 5.36616C125.31 5.72782 125.103 6.0566 125 6.38539C122.765 12.9282 120.667 19.4709 118.501 26.0466C117.71 28.4467 116.266 29.6303 114.168 29.4331C114.065 29.4331 113.927 29.3673 113.824 29.3344C113.274 29.0385 113.308 28.2166 113.927 28.0522C113.996 28.0522 114.031 28.0193 114.099 28.0193C115.956 27.9864 116.747 26.9014 117.229 25.389C119.361 18.8463 121.561 12.3035 123.659 5.72782C124.141 4.2483 124.828 3.09756 126.582 3.09756C128.37 3.06468 129.024 4.31405 129.471 5.7607C130.158 7.96354 130.949 10.1006 131.637 12.3035C132.462 14.868 131.809 15.7557 129.058 15.7557C128.302 15.7557 127.545 15.7228 126.788 15.7557C125.069 15.8215 124.072 16.7749 124.037 18.3531C124.003 19.8655 124.966 20.9505 126.548 21.1149C126.651 21.1149 126.857 21.1477 126.96 21.1477C128.061 21.0491 129.058 21.0491 130.055 21.0491Z" fill="white"/>
<path d="M126.892 18.6489C128.817 18.6489 130.709 18.6489 132.634 18.6489C135.213 18.6489 136.348 19.4051 137.208 21.7723C137.483 22.4956 137.586 23.3176 137.999 24.008C138.343 24.5998 138.996 25.0601 139.478 25.6191C139.718 25.8821 140.097 26.2438 140.028 26.4739C139.959 26.7041 139.65 27.0657 139.202 27.0328C138.412 26.9671 137.586 26.4082 137.174 25.8163C136.589 24.9286 136.417 23.8437 136.039 22.8244C135.248 20.5887 134.629 20.1613 132.222 20.1613C130.468 20.1613 128.714 20.1613 126.96 20.1613C125.722 20.1613 124.897 19.701 124.897 18.4187C124.897 17.1694 125.688 16.6433 126.926 16.6104C127.923 16.6104 128.92 16.6104 129.918 16.5776C132.084 16.5118 133.322 15.098 132.772 13.0925C131.981 10.1663 131.018 7.30588 129.952 4.44547C129.402 2.99882 128.198 2.04535 126.445 2.14399C124.622 2.2755 123.625 3.42624 123.109 4.97152C121.355 10.232 119.636 15.5254 117.882 20.8188C117.366 22.3641 116.885 23.9094 116.403 25.4547C115.991 26.7369 115.028 27.2301 113.721 27.0328C113.446 27 112.964 26.8356 112.964 26.3753C112.964 25.7177 113.343 25.6191 113.549 25.6191C115.097 25.5862 115.234 24.4355 115.544 23.4491C117.572 17.268 119.601 11.0869 121.63 4.87288C121.871 4.18244 122.112 3.492 122.49 2.86731C124.519 -0.256126 129.196 -0.256126 130.777 3.09746C132.256 6.28665 133.322 9.70599 134.182 13.1253C134.87 15.9529 132.806 17.9913 129.78 18.0242C128.817 18.0242 127.854 18.0242 126.892 18.0242C126.892 18.2215 126.892 18.4187 126.892 18.6489Z" fill="white"/>
<path d="M29.3674 12.7968C29.3674 15.1969 29.2986 17.597 29.4017 19.9971C29.5737 24.4028 33.0125 27.7893 37.311 27.9208C41.6095 28.0852 45.4953 24.9617 45.7704 20.5561C46.0799 15.5586 45.908 10.4953 45.9767 5.46493C46.0111 3.29496 46.8364 2.60452 49.0029 2.96618C49.1061 2.96618 49.1748 3.03193 49.278 3.06481C49.6563 3.29496 49.725 3.78813 49.4499 4.08404C49.3124 4.21555 49.1748 4.31419 49.0717 4.31419C47.3523 4.21555 47.3867 5.23478 47.421 6.38552C47.4554 10.7912 47.4554 15.2298 47.421 19.6355C47.3523 25.3892 42.985 29.5318 37.2422 29.3674C32.8405 29.2359 28.8859 26.0138 28.2326 21.6082C27.8199 18.682 28.0262 15.6572 27.9575 12.6981C27.9231 10.5282 27.9575 8.39109 28.0606 6.22113C28.1294 5.07039 27.8887 4.34706 26.5475 4.31419C26.4788 4.31419 26.4444 4.31419 26.3756 4.28131C25.7222 4.08404 25.8254 3.19632 26.4444 2.99906C26.5132 2.96618 26.5475 2.96618 26.6163 2.96618C28.6796 2.80179 29.4017 3.42647 29.4361 5.39917C29.4017 7.86504 29.3674 10.3309 29.3674 12.7968Z" fill="white"/>
<path d="M43.5352 12.2705C43.5352 9.80466 43.4664 7.33879 43.5352 4.90579C43.604 1.91387 45.4265 0.368591 48.5215 0.631618C48.6246 0.631618 48.6934 0.664496 48.7622 0.697374C49.4499 0.9604 49.3468 1.94675 48.6246 2.04538C45.5297 2.37417 44.9107 2.99885 44.9107 5.92502C44.9107 10.4622 44.9107 14.9665 44.9107 19.5037C44.8763 23.8766 41.919 27 37.758 27.0657C33.4939 27.1315 30.2958 24.1396 30.1927 19.701C30.0895 15.0652 30.1927 10.4293 30.1927 5.79351C30.1927 2.9331 29.6081 2.34129 26.5819 2.04538C26.5475 2.04538 26.5132 2.04538 26.4444 2.01251C25.791 1.84811 25.7222 0.993279 26.3068 0.730252C26.41 0.697374 26.4788 0.664496 26.5819 0.664496C29.8144 0.40147 31.5338 1.94675 31.5682 5.07018C31.6026 9.93617 31.5682 14.8022 31.6713 19.6353C31.7401 23.0546 34.2504 25.5533 37.4829 25.5862C40.7154 25.6191 43.2945 23.1861 43.5008 19.9969C43.5008 19.8325 43.5008 19.6681 43.5008 19.5037C43.5008 17.1036 43.5008 14.7035 43.5008 12.3034C43.5008 12.2705 43.5352 12.2705 43.5352 12.2705Z" fill="white"/>
<path d="M106.156 15.0651C106.156 18.1228 106.156 21.2134 106.156 24.271C106.19 27.0986 106.912 27.8219 109.87 27.9205C110.11 27.9205 110.385 27.8548 110.557 27.9534C110.626 27.9863 110.695 28.0192 110.764 28.0849C111.176 28.3479 111.211 28.9069 110.832 29.2028C110.729 29.3014 110.626 29.3343 110.523 29.3672C107.05 30.0576 104.574 28.1178 104.539 24.6327C104.505 18.616 104.505 12.5664 104.539 6.54965C104.539 5.30028 104.471 4.31393 102.751 4.37968C102.682 4.37968 102.614 4.37968 102.545 4.34681C102.029 4.11666 102.029 3.42621 102.511 3.13031C102.614 3.06455 102.751 2.9988 102.889 2.9988C105.365 2.73577 106.156 3.42621 106.156 5.85921C106.19 8.91689 106.156 11.9746 106.156 15.0651Z" fill="white"/>
<path d="M107.084 15.0322C107.084 11.9088 107.084 8.78536 107.084 5.66193C107.084 2.99879 106.19 2.17683 103.473 2.01244C103.473 2.01244 103.473 2.01244 103.439 2.01244C102.545 1.94668 102.545 0.63155 103.439 0.565794C106.878 0.434281 108.632 2.04532 108.632 5.3989C108.632 11.3827 108.666 17.3337 108.632 23.3176C108.632 24.6327 108.7 25.6848 110.523 25.5533C110.592 25.5533 110.66 25.5862 110.729 25.619C111.211 25.9478 111.142 26.6711 110.592 26.9342C110.523 26.967 110.454 26.9999 110.385 26.9999C107.944 27.3616 107.05 26.6054 107.05 24.2381C107.084 21.1805 107.084 18.1228 107.084 15.0322Z" fill="white"/>
<path d="M12.4828 13.8814C12.4828 14.0458 12.6548 14.1773 12.8267 14.1773C13.8928 14.1773 14.9244 14.1444 15.9904 14.1773C20.6328 14.3417 23.934 17.5637 23.8653 21.9365C23.7965 26.145 20.3921 29.367 15.8873 29.4328C13.6177 29.4657 11.3137 29.6301 9.04405 29.367C6.67128 29.104 4.40168 28.3478 2.02891 29.3999C1.68503 29.5643 1.16921 29.5314 0.825328 29.3999C0.722164 29.367 0.619 29.3013 0.515836 29.2684C1.6654e-05 28.9725 0.0344046 28.2492 0.584612 28.019C0.653388 27.9861 0.722164 27.9862 0.79094 27.9862C2.30401 28.0519 3.61075 27.756 4.50484 26.5066C4.74556 26.1778 5.22699 26.1778 5.50209 26.4409C7.04955 27.9533 9.00966 27.9862 11.0042 27.9204C12.6548 27.8875 14.271 27.9533 15.9216 27.8875C19.6012 27.7889 22.2834 25.1586 22.2834 21.805C22.2834 18.3528 19.5324 15.7226 15.8185 15.6568C14.5461 15.6239 13.2394 15.6568 11.967 15.6568C10.7635 15.6568 10.1101 15.0321 10.1101 13.8814C10.1101 12.7635 10.7635 12.1059 11.967 12.0731C13.3082 12.0402 14.6493 12.1059 15.9904 12.0402C19.0166 11.9416 21.2862 9.80447 21.2518 7.04269C21.2518 4.3138 18.9822 2.14383 15.956 2.07807C13.7552 2.01232 11.52 2.01232 9.28477 2.07807C6.12107 2.14383 4.09218 4.1494 4.0578 7.20708C4.02341 12.8621 4.0578 18.5172 4.0578 24.1394C4.0578 26.5395 3.02616 27.4272 0.584612 26.9998C0.515836 26.9998 0.481448 26.9669 0.44706 26.934C1.6654e-05 26.7368 -0.103147 26.145 0.240732 25.7833C0.343896 25.6518 0.481448 25.5532 0.584612 25.586C2.6135 25.7176 2.47595 24.4682 2.47595 23.1859C2.40717 18.024 2.40717 12.8621 2.40717 7.73314C2.44156 3.13018 5.15821 0.598552 9.97253 0.598552C12.0358 0.598552 14.0647 0.565673 16.128 0.63143C20.0482 0.730065 22.7992 3.45896 22.7992 7.20708C22.7992 10.8237 20.0138 13.454 16.0936 13.5197C15.0276 13.5526 13.9615 13.5197 12.8955 13.5197C12.6204 13.5526 12.4828 13.6841 12.4828 13.8814Z" fill="white"/>
<path d="M4.84893 14.9664C4.84893 12.4019 4.81454 9.83738 4.84893 7.27287C4.88332 4.5111 6.46517 3.03158 9.31937 2.96582C11.4858 2.93294 13.6523 2.93294 15.8187 2.96582C18.5697 3.03158 20.3235 4.70837 20.2547 7.14136C20.2204 9.47572 18.3978 11.1196 15.8187 11.1854C14.5463 11.2183 13.2396 11.1525 11.9672 11.2183C10.2478 11.284 9.11304 12.3361 9.04426 13.7499C8.97549 15.2623 10.1791 16.413 11.9329 16.5117C13.3428 16.5774 14.7527 16.4788 16.1282 16.5445C19.2575 16.6761 21.4239 18.8131 21.4583 21.7064C21.4927 24.6655 19.2919 26.9012 16.1282 27.0327C13.7898 27.0985 11.4514 27.0985 9.11304 27.0327C6.49955 26.9341 4.91771 25.3888 4.84893 22.8572C4.81454 20.2269 4.88332 17.5967 4.84893 14.9664ZM6.39639 14.8349C6.39639 17.3336 6.362 19.8653 6.39639 22.364C6.43078 24.5668 7.35925 25.4217 9.59447 25.4874C11.6234 25.5203 13.6866 25.5203 15.7155 25.4874C18.1915 25.4217 19.8077 23.975 19.8421 21.8379C19.8765 19.7337 18.2602 18.1885 15.7843 18.0569C14.512 17.9912 13.2052 18.0569 11.9329 18.0241C9.35376 17.9583 7.53119 16.3473 7.42803 14.0458C7.32487 11.6786 9.07865 9.83738 11.7265 9.67299C12.9989 9.60723 14.3056 9.67299 15.578 9.60723C17.5037 9.54148 18.6041 8.588 18.6385 7.04273C18.6729 5.46457 17.4693 4.41246 15.5092 4.37959C13.5147 4.34671 11.5202 4.37959 9.56008 4.44534C7.32487 4.5111 6.43078 5.39881 6.39639 7.56878C6.362 10.0346 6.39639 12.4348 6.39639 14.8349Z" fill="white"/>
<path d="M60.3166 29.4329C58.047 29.4329 55.743 29.4657 53.4734 29.4C53.4046 29.4 53.3014 29.3671 53.2326 29.3342C52.5105 29.0712 52.6137 28.052 53.3702 27.9533C53.4046 27.9533 53.439 27.9533 53.4734 27.9533C57.8406 27.8876 62.2423 27.9533 66.6096 27.9205C69.8076 27.8876 72.318 25.9149 73.1089 23.0216C73.9342 19.931 72.6618 16.8734 69.8076 15.4267C68.8104 14.9336 67.6068 14.7034 66.472 14.6376C64.3744 14.5061 62.2767 14.6376 60.179 14.6048C56.8434 14.5061 54.4706 12.106 54.4362 8.81819C54.4018 5.56324 56.7402 3.09737 60.1446 3.03162C64.2368 2.96586 68.329 2.99874 72.4211 3.03162C72.4899 3.03162 72.5587 3.03162 72.6619 3.0645C73.384 3.22889 73.384 4.24811 72.6962 4.4125C72.6275 4.44538 72.5587 4.44538 72.4899 4.44538C68.4665 4.51114 64.4431 4.44538 60.3853 4.51114C58.2533 4.54402 56.809 5.629 56.19 7.47018C55.571 9.24561 56.1212 11.1854 57.7719 12.2375C58.5972 12.7636 59.6976 13.0266 60.6948 13.0924C62.7237 13.2239 64.787 13.0924 66.8159 13.1252C71.3551 13.191 74.7595 16.5775 74.8283 21.016C74.9315 25.6847 71.6302 29.2685 66.9878 29.4329C64.7526 29.4657 62.5174 29.4 60.3166 29.4329Z" fill="white"/>
<path d="M66.7815 15.4267C64.787 15.3938 62.7925 15.4267 60.8323 15.4267C56.5338 15.3938 53.5077 12.5992 53.5421 8.68664C53.5765 4.90564 56.637 2.07811 60.7636 2.04523C64.615 2.01235 68.4665 2.07811 72.3523 2.01235C73.1776 1.97947 73.3152 0.795853 72.5242 0.598583C72.4555 0.598583 72.3867 0.565705 72.3179 0.565705C68.2945 0.499948 64.2368 0.499948 60.2134 0.532827C55.571 0.598583 52.029 4.18231 52.029 8.68664C52.0634 13.2567 55.571 16.7747 60.2134 16.8405C62.4486 16.8733 64.6494 16.8076 66.8846 16.9062C69.3262 17.0377 71.0456 18.9447 70.9768 21.3119C70.908 23.6134 69.1886 25.3559 66.7815 25.4546C64.9589 25.5203 63.1363 25.4874 61.3138 25.4874H53.1638C52.9575 25.5861 52.7856 25.6847 52.5792 25.7833C52.5448 25.8162 52.5448 25.8491 52.5105 25.882C52.2353 26.2436 52.3729 26.7368 52.7856 26.9341C52.8543 26.967 52.9575 26.9998 53.0263 26.9998C57.8062 27.0327 62.6205 27.1313 67.4004 26.9341C70.461 26.8026 72.6618 23.9422 72.4899 20.9174C72.2835 17.8597 69.8764 15.4924 66.7815 15.4267Z" fill="white"/>
<path d="M55.4335 25.5207C55.9083 25.5207 56.2932 25.1527 56.2932 24.6987C56.2932 24.2447 55.9083 23.8767 55.4335 23.8767C54.9587 23.8767 54.5738 24.2447 54.5738 24.6987C54.5738 25.1527 54.9587 25.5207 55.4335 25.5207Z" fill="white"/>
<path d="M59.3881 25.5205C59.8629 25.5205 60.2478 25.1524 60.2478 24.6985C60.2478 24.2445 59.8629 23.8765 59.3881 23.8765C58.9132 23.8765 58.5283 24.2445 58.5283 24.6985C58.5283 25.1524 58.9132 25.5205 59.3881 25.5205Z" fill="white"/>
<path d="M61.7956 23.1204H60.7639V21.3449H61.6236L61.5892 21.0161C61.5549 20.7859 61.3485 20.5886 61.1078 20.5886H53.8172C53.4733 20.5886 53.1982 20.8517 53.1982 21.1805V24.2383C53.1982 24.5671 53.4733 24.8301 53.8172 24.8301H54.4362C54.4362 24.7972 54.4362 24.7315 54.4362 24.6986C54.4362 24.1725 54.8833 23.7451 55.4335 23.7451C55.9837 23.7451 56.4308 24.1725 56.4308 24.6986C56.4308 24.7644 56.4308 24.7972 56.4308 24.8301H58.4598C58.4598 24.7972 58.4598 24.7315 58.4598 24.6986C58.4598 24.1725 58.9069 23.7451 59.4571 23.7451C60.0073 23.7451 60.4544 24.1725 60.4544 24.6986C60.4544 24.7644 60.4544 24.7972 60.4544 24.8301H61.3485C61.7268 24.8301 62.0019 24.5342 61.9675 24.1725L61.7956 23.1204ZM55.3991 23.1204H54.0235V21.3449H55.3991V23.1204ZM57.5657 23.1204H56.1901V21.3449H57.5657V23.1204ZM59.7666 23.1204H58.391V21.3449H59.7666V23.1204Z" fill="white"/>
</g>
<defs>
<clipPath id="clip0_70_241">
<rect width="140" height="29" fill="white" transform="translate(0 0.5)"/>
</clipPath>
</defs>
</svg>
