<svg width="173" height="37" viewBox="0 0 173 37" fill="none" xmlns="http://www.w3.org/2000/svg">
<g clip-path="url(#clip0_50_328)">
<path d="M100.672 14.8923C100.672 13.0465 100.63 11.2007 100.672 9.35487C100.8 6.20862 102.5 3.77551 105.602 3.48186C108.916 3.14626 112.359 3.23016 115.673 3.77551C117.076 3.98526 118.775 5.57936 119.37 6.96372C122.643 14.5986 118.096 22.5692 109.724 22.2755C107.557 22.1916 105.389 22.1497 103.222 22.2755C101.31 22.4014 100.417 21.856 100.63 19.8005C100.757 18.2063 100.63 16.5283 100.672 14.8923ZM102.5 14.0113C102.457 15.3118 102.542 16.5703 102.457 17.8707C102.33 19.5907 102.925 20.3878 104.752 20.2619C106.622 20.1361 108.492 20.22 110.404 20.22C116.608 20.22 120.475 13.7177 117.543 7.59297C117.033 6.50227 115.461 5.45351 114.228 5.24376C111.764 4.86621 109.214 4.86621 106.707 5.07596C104.114 5.28571 102.712 6.92177 102.542 9.48073C102.415 11.0329 102.5 12.5011 102.5 14.0113Z" fill="#C80067"/>
<path d="M100.63 24.2891C100.63 23.7438 101.055 23.2823 101.607 23.2823C104.667 23.2823 107.387 23.1984 110.106 23.2823C118.053 23.534 124.342 15.0181 120.178 6.20862C119.625 5.03401 118.436 3.18821 117.246 2.76871C112.444 1.0907 108.322 1.21655 103.435 2.89456C100.502 3.90136 99.5249 6.96372 99.5249 9.98413C99.5249 16.6961 99.5249 23.4082 99.5249 30.0782C99.5249 33.2245 98.2925 34.2732 95.2753 33.8118C95.1479 33.8118 95.0204 33.7279 94.8929 33.644C94.3829 33.2664 94.3404 32.4694 94.8504 32.0918C94.9354 32.0499 95.0204 32.0079 95.0629 32.0079C97.6551 32.2177 97.5276 30.5397 97.5276 28.8197C97.4851 22.9048 97.4426 16.9898 97.5276 11.0748C97.7401 3.64966 101.14 0.2517 108.661 -2.21655e-07C110.829 -0.0419503 112.996 0.0839 115.121 0.419501C119.455 1.13265 122.048 3.77551 122.898 8.01247C124.045 13.7177 123.068 18.7937 118.223 22.6531C115.971 24.415 113.421 25.1701 110.574 25.212C108.492 25.212 106.367 25.2959 104.284 25.2959C103.01 25.2959 102.457 25.7993 102.457 27.0578C102.457 28.6939 102.542 30.3299 102.415 31.966C102.075 35.7415 98.845 37.4615 94.9779 36.7483C94.6804 36.7064 94.213 36.4547 94.2555 35.6576C94.2979 35.1122 94.8079 34.9864 95.1054 34.9864C96.9327 34.8605 99.185 35.3639 99.9924 33.1825C100.587 31.5884 100.545 29.7426 100.672 27.9807C100.715 26.8061 100.672 25.6315 100.63 24.2891Z" fill="#C80067"/>
<path d="M160.719 26.2188C167.221 26.3027 166.073 25.4218 168.028 31.5045C168.665 33.4762 169.643 34.9864 172.065 35.0283C172.15 35.0283 172.193 35.0703 172.278 35.1122C172.788 35.4059 172.872 36.119 172.448 36.5385C172.32 36.6644 172.15 36.7903 171.98 36.8322C170.238 37.2097 168.198 36.0771 167.221 34.1893C166.668 33.0986 166.201 31.966 165.988 30.7914C165.563 28.61 164.331 27.8968 162.164 28.0646C160.294 28.2324 158.424 28.1485 156.512 28.0646C153.537 27.9807 151.54 25.8413 151.497 22.7789C151.455 19.8005 153.367 17.661 156.257 17.4512C156.597 17.4093 156.979 17.4093 157.319 17.4093C161.951 17.4093 161.696 17.5771 160.294 13.2143C159.699 11.3265 159.231 9.35488 158.424 7.50907C158.254 7.08957 157.957 6.62812 157.617 6.16667C157.022 5.32766 155.704 5.32766 155.152 6.20862C154.854 6.67007 154.599 7.08957 154.472 7.50907C151.71 15.8571 149.117 24.2052 146.44 32.5952C145.463 35.6576 143.678 37.1678 141.086 36.9161C140.958 36.9161 140.788 36.8322 140.661 36.7902C139.981 36.4127 140.023 35.3639 140.788 35.1542C140.873 35.1542 140.916 35.1122 141.001 35.1122C143.295 35.0703 144.273 33.6859 144.868 31.7562C147.503 23.4082 150.222 15.0601 152.815 6.67007C153.409 4.78231 154.259 3.31406 156.427 3.31406C158.636 3.27211 159.444 4.86621 159.996 6.71202C160.846 9.52268 161.824 12.2494 162.674 15.0601C163.693 18.3322 162.886 19.4649 159.486 19.4649C158.551 19.4649 157.617 19.4229 156.682 19.4649C154.557 19.5488 153.324 20.7653 153.282 22.7789C153.239 24.7086 154.429 26.093 156.384 26.3027C156.512 26.3027 156.767 26.3447 156.894 26.3447C158.254 26.2188 159.486 26.2188 160.719 26.2188Z" fill="#C80067"/>
<path d="M156.809 23.1565C159.189 23.1565 161.526 23.1565 163.906 23.1565C167.093 23.1565 168.495 24.1213 169.558 27.1417C169.898 28.0646 170.025 29.1134 170.535 29.9943C170.96 30.7494 171.768 31.3367 172.363 32.0499C172.66 32.3855 173.127 32.8469 173.042 33.1406C172.957 33.4342 172.575 33.8957 172.023 33.8537C171.045 33.7698 170.025 33.0567 169.515 32.3016C168.793 31.1689 168.58 29.7846 168.113 28.4841C167.136 25.6315 166.371 25.0862 163.396 25.0862C161.229 25.0862 159.061 25.0862 156.894 25.0862C155.364 25.0862 154.344 24.4989 154.344 22.8628C154.344 21.2687 155.322 20.5975 156.852 20.5556C158.084 20.5556 159.316 20.5556 160.549 20.5136C163.226 20.4297 164.756 18.6259 164.076 16.0669C163.098 12.3333 161.909 8.68367 160.591 5.03401C159.911 3.18821 158.424 1.97166 156.257 2.09751C154.004 2.26531 152.772 3.73356 152.135 5.70522C149.967 12.4172 147.843 19.1712 145.675 25.9252C145.038 27.8968 144.443 29.8685 143.848 31.8401C143.338 33.4762 142.148 34.1054 140.533 33.8537C140.193 33.8118 139.598 33.602 139.598 33.0147C139.598 32.1757 140.066 32.0499 140.321 32.0499C142.233 32.0079 142.403 30.5397 142.786 29.2812C145.293 21.3946 147.8 13.5079 150.307 5.57937C150.605 4.69841 150.902 3.81746 151.37 3.02041C153.877 -0.964853 159.656 -0.964853 161.611 3.31406C163.438 7.38322 164.756 11.746 165.818 16.1088C166.668 19.7166 164.118 22.3175 160.379 22.3594C159.189 22.3594 157.999 22.3594 156.809 22.3594C156.809 22.6111 156.809 22.8628 156.809 23.1565Z" fill="#C80067"/>
<path d="M36.2913 15.6893C36.2913 18.7517 36.2063 21.8141 36.3338 24.8764C36.5463 30.4977 40.7959 34.8186 46.1078 34.9864C51.4198 35.1961 56.2218 31.2109 56.5618 25.5896C56.9442 19.2132 56.7318 12.7528 56.8167 6.33447C56.8592 3.56576 57.8791 2.68481 60.5564 3.14626C60.6839 3.14626 60.7689 3.23016 60.8963 3.27211C61.3638 3.56576 61.4488 4.19501 61.1088 4.57256C60.9388 4.74036 60.7689 4.86621 60.6414 4.86621C58.5166 4.74036 58.5591 6.04082 58.6016 7.50907C58.6441 13.1304 58.6441 18.7937 58.6016 24.415C58.5166 31.7562 53.1196 37.042 46.0228 36.8322C40.5834 36.6644 35.6964 32.5533 34.889 26.932C34.379 23.1984 34.634 19.339 34.549 15.5635C34.5065 12.7948 34.549 10.068 34.6765 7.29932C34.7615 5.83107 34.464 4.90816 32.8067 4.86621C32.7217 4.86621 32.6792 4.86621 32.5942 4.82426C31.7868 4.57256 31.9143 3.43991 32.6792 3.18821C32.7642 3.14626 32.8067 3.14626 32.8917 3.14626C35.4414 2.93651 36.3338 3.73356 36.3763 6.25057C36.3338 9.39683 36.2913 12.5431 36.2913 15.6893Z" fill="#C80067"/>
<path d="M53.7996 15.0181C53.7996 11.8719 53.7146 8.72562 53.7996 5.62132C53.8845 1.80385 56.1368 -0.1678 59.9614 0.167801C60.0889 0.167801 60.1739 0.209751 60.2589 0.251701C61.1088 0.587302 60.9813 1.84581 60.0889 1.97166C56.2643 2.39116 55.4994 3.18821 55.4994 6.92177C55.4994 12.7109 55.4994 18.4581 55.4994 24.2472C55.4569 29.8265 51.8023 33.8118 46.6603 33.8957C41.3908 33.9796 37.4387 30.1621 37.3112 24.4989C37.1837 18.5839 37.3112 12.6689 37.3112 6.75397C37.3112 3.10431 36.5888 2.34921 32.8492 1.97166C32.8067 1.97166 32.7642 1.97166 32.6792 1.92971C31.8718 1.71995 31.7868 0.629252 32.5092 0.293651C32.6367 0.251701 32.7217 0.209751 32.8492 0.209751C36.8438 -0.12585 38.9686 1.8458 39.0111 5.83107C39.0535 12.0397 39.0111 18.2483 39.1385 24.415C39.2235 28.7778 42.3257 31.966 46.3203 32.0079C50.3149 32.0499 53.5021 28.9456 53.7571 24.8764C53.7571 24.6667 53.7571 24.4569 53.7571 24.2472C53.7571 21.1848 53.7571 18.1225 53.7571 15.0601C53.7571 15.0181 53.7996 15.0181 53.7996 15.0181Z" fill="#C80067"/>
<path d="M131.184 18.5839C131.184 22.4853 131.184 26.4286 131.184 30.3299C131.227 33.9376 132.119 34.8605 135.774 34.9864C136.071 34.9864 136.411 34.9025 136.624 35.0283C136.709 35.0703 136.794 35.1122 136.879 35.1961C137.389 35.5317 137.431 36.2449 136.964 36.6225C136.836 36.7483 136.709 36.7903 136.581 36.8322C132.289 37.7132 129.229 35.2381 129.187 30.7914C129.144 23.1145 129.144 15.3957 129.187 7.71882C129.187 6.12472 129.102 4.86621 126.977 4.95011C126.892 4.95011 126.807 4.95011 126.722 4.90816C126.085 4.61451 126.085 3.73356 126.68 3.35601C126.807 3.27211 126.977 3.18821 127.147 3.18821C130.207 2.85261 131.184 3.73356 131.184 6.83787C131.227 10.7392 131.184 14.6406 131.184 18.5839Z" fill="#C80067"/>
<path d="M132.332 18.542C132.332 14.5567 132.332 10.5714 132.332 6.58617C132.332 3.18821 131.227 2.13946 127.87 1.92971C127.87 1.92971 127.87 1.92971 127.827 1.92971C126.722 1.8458 126.722 0.1678 127.827 0.0839C132.077 -0.0839005 134.244 1.97166 134.244 6.25057C134.244 13.8855 134.286 21.4785 134.244 29.1134C134.244 30.7914 134.329 32.1338 136.581 31.966C136.666 31.966 136.751 32.0079 136.836 32.0499C137.431 32.4694 137.346 33.3923 136.666 33.7279C136.581 33.7698 136.496 33.8118 136.411 33.8118C133.394 34.2732 132.289 33.3084 132.289 30.288C132.332 26.3866 132.332 22.4853 132.332 18.542Z" fill="#C80067"/>
<path d="M15.4259 17.0737C15.4259 17.2834 15.6384 17.4512 15.8509 17.4512C17.1683 17.4512 18.4431 17.4093 19.7605 17.4512C25.4974 17.661 29.577 21.7721 29.492 27.3515C29.407 32.7211 25.2 36.8322 19.633 36.9161C16.8283 36.9581 13.9811 37.1678 11.1764 36.8322C8.24416 36.4966 5.43945 35.5317 2.50725 36.8742C2.08229 37.0839 1.44485 37.042 1.0199 36.8742C0.892409 36.8322 0.764922 36.7483 0.637435 36.7064C-6.96629e-07 36.3288 0.042495 35.4059 0.722426 35.1122C0.807418 35.0703 0.892409 35.0703 0.9774 35.0703C2.84721 35.1542 4.46205 34.7766 5.56694 33.1825C5.86441 32.763 6.45935 32.763 6.79931 33.0986C8.71162 35.0283 11.1339 35.0703 13.5986 34.9864C15.6384 34.9444 17.6357 35.0283 19.6755 34.9444C24.2225 34.8186 27.5372 31.4626 27.5372 27.1837C27.5372 22.7789 24.1376 19.4229 19.548 19.339C17.9757 19.2971 16.3608 19.339 14.7885 19.339C13.3012 19.339 12.4937 18.542 12.4937 17.0737C12.4937 15.6474 13.3012 14.8084 14.7885 14.7664C16.4458 14.7245 18.1032 14.8084 19.7605 14.7245C23.5001 14.5986 26.3048 11.8719 26.2623 8.34807C26.2623 4.86621 23.4576 2.09751 19.718 2.0136C16.9983 1.9297 14.2361 1.9297 11.4738 2.0136C7.56423 2.09751 5.05699 4.65646 5.01449 8.55782C4.972 15.7732 5.01449 22.9887 5.01449 30.1621C5.01449 33.2245 3.73962 34.3571 0.722426 33.8118C0.637435 33.8118 0.594939 33.7698 0.552443 33.7279C-6.96629e-07 33.4762 -0.127488 32.7211 0.297469 32.2596C0.424956 32.0918 0.594939 31.966 0.722426 32.0079C3.22967 32.1757 3.05969 30.5816 3.05969 28.9456C2.9747 22.3594 2.9747 15.7732 2.9747 9.22902C3.01719 3.35601 6.37435 0.12585 12.3238 0.12585C14.8735 0.12585 17.3807 0.0838996 19.9305 0.1678C24.775 0.29365 28.1747 3.77551 28.1747 8.55782C28.1747 13.1723 24.7325 16.5283 19.888 16.6122C18.5706 16.6542 17.2533 16.6122 15.9359 16.6122C15.5959 16.6542 15.4259 16.822 15.4259 17.0737Z" fill="#C80067"/>
<path d="M5.99189 18.4581C5.99189 15.1859 5.9494 11.9138 5.99189 8.64172C6.03439 5.11791 7.98919 3.23016 11.5163 3.14626C14.1936 3.10431 16.8708 3.10431 19.548 3.14626C22.9477 3.23016 25.115 5.36961 25.03 8.47392C24.9875 11.4524 22.7352 13.5499 19.548 13.6338C17.9757 13.6757 16.3608 13.5918 14.7885 13.6757C12.6637 13.7596 11.2614 15.102 11.1764 16.9059C11.0914 18.8356 12.5787 20.3039 14.746 20.4297C16.4883 20.5136 18.2307 20.3878 19.9305 20.4717C23.7976 20.6395 26.4748 23.3662 26.5173 27.0578C26.5598 30.8333 23.8401 33.6859 19.9305 33.8537C17.0408 33.9376 14.1511 33.9376 11.2614 33.8537C8.03169 33.7279 6.07689 31.7562 5.99189 28.5261C5.9494 25.1701 6.03439 21.8141 5.99189 18.4581ZM7.9042 18.2902C7.9042 21.4785 7.86171 24.7086 7.9042 27.8968C7.9467 30.7075 9.09408 31.7982 11.8563 31.8821C14.3635 31.924 16.9133 31.924 19.4205 31.8821C22.4802 31.7982 24.4775 29.9524 24.52 27.2256C24.5625 24.5408 22.5652 22.5692 19.5055 22.4014C17.9332 22.3175 16.3183 22.4014 14.746 22.3594C11.5588 22.2755 9.30656 20.22 9.17907 17.2834C9.05158 14.263 11.2189 11.9138 14.491 11.7041C16.0634 11.6202 17.6782 11.7041 19.2506 11.6202C21.6303 11.5363 22.9902 10.3197 23.0327 8.34807C23.0752 6.33447 21.5878 4.99206 19.1656 4.95011C16.7008 4.90816 14.2361 4.95011 11.8138 5.03401C9.05158 5.11791 7.9467 6.25057 7.9042 9.01927C7.86171 12.1655 7.9042 15.2279 7.9042 18.2902Z" fill="#C80067"/>
<path d="M74.5374 36.9161C71.7327 36.9161 68.8855 36.9581 66.0808 36.8742C65.9958 36.8742 65.8683 36.8322 65.7833 36.7903C64.8909 36.4546 65.0184 35.1542 65.9533 35.0283C65.9958 35.0283 66.0383 35.0283 66.0808 35.0283C71.4778 34.9444 76.9172 35.0283 82.3142 34.9864C86.2663 34.9444 89.3685 32.4274 90.3459 28.7358C91.3658 24.7925 89.7934 20.8912 86.2663 19.0454C85.0339 18.4161 83.5465 18.1224 82.1442 18.0385C79.5519 17.8707 76.9597 18.0385 74.3675 17.9966C70.2454 17.8707 67.3132 14.8084 67.2707 10.6134C67.2282 6.46032 70.1179 3.31406 74.325 3.23016C79.382 3.14626 84.439 3.18821 89.4959 3.23016C89.5809 3.23016 89.6659 3.23016 89.7934 3.27211C90.6858 3.48186 90.6858 4.78231 89.8359 4.99206C89.7509 5.03401 89.6659 5.03401 89.5809 5.03401C84.6089 5.11791 79.6369 5.03401 74.6224 5.11791C71.9877 5.15986 70.2029 6.54422 69.438 8.89342C68.673 11.1587 69.353 13.6338 71.3928 14.9762C72.4127 15.6474 73.7725 15.983 75.0049 16.0669C77.5121 16.2347 80.0619 16.0669 82.5691 16.1088C88.1786 16.1927 92.3856 20.5136 92.4706 26.1769C92.5981 32.1338 88.5185 36.7064 82.7816 36.9161C80.0194 36.9581 77.2572 36.8742 74.5374 36.9161Z" fill="#C80067"/>
<path d="M82.5266 19.0454C80.0619 19.0034 77.5971 19.0454 75.1749 19.0454C69.8629 19.0034 66.1233 15.4376 66.1658 10.4456C66.2083 5.62132 69.9904 2.01361 75.0899 1.97166C79.8494 1.92971 84.6089 2.01361 89.4109 1.92971C90.4308 1.88775 90.6008 0.377551 89.6234 0.12585C89.5384 0.12585 89.4534 0.0839 89.3685 0.0839C84.3965 -2.45869e-07 79.382 -2.45869e-07 74.41 0.0419499C68.673 0.12585 64.296 4.69841 64.296 10.4456C64.3385 16.2766 68.673 20.7653 74.41 20.8492C77.1722 20.8912 79.8919 20.8073 82.6541 20.9331C85.6713 21.1009 87.7961 23.534 87.7111 26.5544C87.6261 29.4909 85.5013 31.7143 82.5266 31.8401C80.2744 31.924 78.0221 31.8821 75.7698 31.8821H65.6983C65.4434 32.0079 65.2309 32.1338 64.9759 32.2596C64.9334 32.3016 64.9334 32.3435 64.8909 32.3855C64.551 32.8469 64.7209 33.4762 65.2309 33.7279C65.3159 33.7698 65.4434 33.8118 65.5284 33.8118C71.4353 33.8537 77.3847 33.9796 83.2916 33.7279C87.0737 33.5601 89.7934 29.9104 89.5809 26.051C89.326 22.1497 86.3513 19.1293 82.5266 19.0454Z" fill="#C80067"/>
<path d="M68.5031 31.924C69.0898 31.924 69.5655 31.4545 69.5655 30.8753C69.5655 30.2961 69.0898 29.8265 68.5031 29.8265C67.9163 29.8265 67.4407 30.2961 67.4407 30.8753C67.4407 31.4545 67.9163 31.924 68.5031 31.924Z" fill="#C80067"/>
<path d="M73.3901 31.924C73.9768 31.924 74.4525 31.4545 74.4525 30.8753C74.4525 30.2961 73.9768 29.8265 73.3901 29.8265C72.8033 29.8265 72.3277 30.2961 72.3277 30.8753C72.3277 31.4545 72.8033 31.924 73.3901 31.924Z" fill="#C80067"/>
<path d="M76.3648 28.8617H75.0899V26.5964H76.1523L76.1098 26.1769C76.0673 25.8832 75.8123 25.6315 75.5149 25.6315H66.5058C66.0808 25.6315 65.7408 25.9671 65.7408 26.3866V30.288C65.7408 30.7075 66.0808 31.0431 66.5058 31.0431H67.2707C67.2707 31.0011 67.2707 30.9172 67.2707 30.8753C67.2707 30.2041 67.8231 29.6587 68.5031 29.6587C69.183 29.6587 69.7354 30.2041 69.7354 30.8753C69.7354 30.9592 69.7354 31.0011 69.7354 31.0431H72.2427C72.2427 31.0011 72.2427 30.9172 72.2427 30.8753C72.2427 30.2041 72.7951 29.6587 73.4751 29.6587C74.155 29.6587 74.7074 30.2041 74.7074 30.8753C74.7074 30.9592 74.7074 31.0011 74.7074 31.0431H75.8123C76.2798 31.0431 76.6197 30.6655 76.5772 30.2041L76.3648 28.8617ZM68.4606 28.8617H66.7607V26.5964H68.4606V28.8617ZM71.1378 28.8617H69.438V26.5964H71.1378V28.8617ZM73.8575 28.8617H72.1577V26.5964H73.8575V28.8617Z" fill="#C80067"/>
</g>
<defs>
<clipPath id="clip0_50_328">
<rect width="173" height="37" fill="white"/>
</clipPath>
</defs>
</svg>
