<svg width="49" height="48" viewBox="0 0 49 48" fill="none" xmlns="http://www.w3.org/2000/svg">
<path fill-rule="evenodd" clip-rule="evenodd" d="M14.4601 9.37111C13.883 9.35252 13.3078 9.44526 12.7674 9.64402C12.227 9.84278 11.732 10.1437 11.3107 10.5295C10.8894 10.9153 10.55 11.3784 10.312 11.8925C10.0768 12.4005 9.94514 12.9484 9.92432 13.5055C9.92937 14.1027 10.1853 14.8894 10.6871 15.8128C11.1821 16.7239 11.8569 17.6609 12.5549 18.5188C13.2495 19.3726 13.9474 20.1239 14.4731 20.6629C14.4821 20.6722 14.4911 20.6814 14.5 20.6905C14.5089 20.6814 14.5179 20.6722 14.5269 20.6629C15.0526 20.1239 15.7505 19.3726 16.4451 18.5188C17.1431 17.6609 17.8179 16.7239 18.3129 15.8128C18.8147 14.8894 19.0706 14.1027 19.0757 13.5055C19.0549 12.9484 18.9232 12.4005 18.688 11.8925C18.45 11.3784 18.1106 10.9153 17.6893 10.5295C17.268 10.1437 16.773 9.84278 16.2326 9.64402C15.6922 9.44526 15.117 9.35252 14.5399 9.37111L14.5 9.37239L14.4601 9.37111ZM14.5 22.3704C13.6675 23.2312 13.6673 23.2311 13.6671 23.2309L13.661 23.2252L13.6462 23.2115L13.5929 23.1614C13.5472 23.1183 13.4815 23.0558 13.3986 22.9757C13.2331 22.8155 12.9986 22.5847 12.7182 22.2971C12.1586 21.7235 11.4095 20.9175 10.6572 19.9929C9.90827 19.0723 9.13605 18.0097 8.54589 16.9236C7.96745 15.859 7.5 14.6574 7.5 13.4875V13.4686L7.50062 13.4497C7.52919 12.5747 7.73399 11.7137 8.1033 10.9161C8.47262 10.1184 8.9992 9.39975 9.65296 8.80108C10.3067 8.20241 11.0748 7.73552 11.9134 7.4271C12.7394 7.12327 13.6179 6.97909 14.5 7.00244C15.3821 6.97909 16.2606 7.12327 17.0866 7.4271C17.9252 7.73552 18.6933 8.20241 19.347 8.80108C20.0008 9.39974 20.5274 10.1184 20.8967 10.9161C21.266 11.7137 21.4708 12.5747 21.4994 13.4497L21.5 13.4686V13.4875C21.5 14.6574 21.0325 15.859 20.4541 16.9236C19.8639 18.0097 19.0917 19.0723 18.3428 19.9929C17.5905 20.9175 16.8414 21.7235 16.2818 22.2971C16.0014 22.5847 15.7669 22.8155 15.6014 22.9757C15.5185 23.0558 15.4528 23.1183 15.4071 23.1614L15.3538 23.2115L15.339 23.2252L15.3329 23.2309C15.3327 23.2311 15.3325 23.2312 14.5 22.3704ZM14.5 22.3704L15.3329 23.2309L14.5 24L13.6671 23.2309L14.5 22.3704Z" fill="#C80067"/>
<path d="M13.5 14C13.5 14.2652 13.6054 14.5196 13.7929 14.7071C13.9804 14.8946 14.2348 15 14.5 15C14.7652 15 15.0196 14.8946 15.2071 14.7071C15.3946 14.5196 15.5 14.2652 15.5 14C15.5 13.7348 15.3946 13.4804 15.2071 13.2929C15.0196 13.1054 14.7652 13 14.5 13C14.2348 13 13.9804 13.1054 13.7929 13.2929C13.6054 13.4804 13.5 13.7348 13.5 14Z" fill="#C80067"/>
<path d="M33.5 28C33.5 28.2652 33.6054 28.5196 33.7929 28.7071C33.9804 28.8946 34.2348 29 34.5 29C34.7652 29 35.0196 28.8946 35.2071 28.7071C35.3946 28.5196 35.5 28.2652 35.5 28C35.5 27.7348 35.3946 27.4804 35.2071 27.2929C35.0196 27.1054 34.7652 27 34.5 27C34.2348 27 33.9804 27.1054 33.7929 27.2929C33.6054 27.4804 33.5 27.7348 33.5 28Z" fill="#C80067"/>
<path fill-rule="evenodd" clip-rule="evenodd" d="M34.46 23.5133C33.2964 23.4734 32.1652 23.9135 31.3147 24.7367C30.4695 25.5548 29.9701 26.6849 29.9243 27.8815C29.9297 28.5279 30.1872 29.3682 30.6876 30.3462C31.1822 31.3131 31.8563 32.304 32.5537 33.2098C33.2478 34.1112 33.9452 34.9028 34.4705 35.4701C34.4794 35.4797 34.4882 35.4892 34.497 35.4987C34.5069 35.488 34.5169 35.4772 34.5269 35.4663C35.0526 34.895 35.7505 34.0986 36.4451 33.1936C37.1431 32.2843 37.8179 31.2912 38.3129 30.3254C38.8142 29.3475 39.0702 28.5142 39.0757 27.8814C39.0299 26.6848 38.5305 25.5548 37.6853 24.7367C36.8348 23.9135 35.7036 23.4734 34.54 23.5133L34.5 23.5146L34.46 23.5133ZM34.5 37.2761C33.6711 38.1921 33.671 38.192 33.6708 38.1918L33.6646 38.1857L33.6498 38.1712L33.5963 38.1185C33.5505 38.073 33.4847 38.0072 33.4018 37.9228C33.2361 37.7542 33.0014 37.511 32.7208 37.2079C32.1609 36.6032 31.4112 35.7529 30.6584 34.7752C29.9088 33.8018 29.136 32.6762 28.5454 31.5217C27.9658 30.3888 27.5 29.1103 27.5 27.8607V27.839L27.5007 27.8173C27.5632 25.9475 28.3396 24.1798 29.6594 22.9023C30.9695 21.6343 32.7086 20.9522 34.5 21.0026C36.2914 20.9522 38.0305 21.6343 39.3406 22.9023C40.6604 24.1798 41.4368 25.9475 41.4993 27.8173L41.5 27.839V27.8607C41.5 29.1007 41.0325 30.3744 40.4541 31.5028C39.8639 32.654 39.0917 33.7803 38.3428 34.7561C37.5905 35.7361 36.8414 36.5904 36.2818 37.1985C36.0014 37.5032 35.7669 37.7479 35.6014 37.9176C35.5185 38.0025 35.4528 38.0688 35.4071 38.1145L35.3538 38.1676L35.339 38.1822L35.3329 38.1882C35.3327 38.1884 35.3325 38.1885 34.5 37.2761ZM34.5 37.2761L35.3329 38.1882L34.5035 39L33.6708 38.1918L34.5 37.2761Z" fill="#C80067"/>
<path fill-rule="evenodd" clip-rule="evenodd" d="M19.2677 26.4505H12.9108V24H19.2677C20.5184 24 21.718 24.5147 22.6024 25.431C23.4868 26.3472 23.9836 27.5898 23.9836 28.8856C23.9836 30.1813 23.4868 31.424 22.6024 32.3402C21.718 33.2564 20.5184 33.7712 19.2677 33.7712H12.2159C11.6026 33.771 11.0131 34.0191 10.574 34.4627C10.1384 34.9026 9.88451 35.5003 9.86541 36.1298C9.86931 36.7701 10.1165 37.3833 10.5538 37.8363C10.9947 38.293 11.5925 38.5495 12.2159 38.5495H35.5V41H12.2159C10.9652 41 9.76568 40.4853 8.88127 39.569C7.99686 38.6528 7.5 37.4102 7.5 36.1144V36.0836C7.53089 34.8093 8.04173 33.5979 8.92281 32.708C9.80381 31.8183 10.9856 31.3204 12.2159 31.3207C12.2158 31.3207 12.2161 31.3207 12.2159 31.3207H19.2677C19.8911 31.3207 20.489 31.0642 20.9298 30.6075C21.3706 30.1508 21.6183 29.5314 21.6183 28.8856C21.6183 28.2397 21.3706 27.6204 20.9298 27.1637C20.489 26.707 19.8911 26.4505 19.2677 26.4505Z" fill="#C80067"/>
</svg>
