<svg width="49" height="48" viewBox="0 0 49 48" fill="none" xmlns="http://www.w3.org/2000/svg">
<path d="M39.9688 16.9688H42.7812V22.5938H39.9688V16.9688Z" fill="#C80067"/>
<path d="M6.21875 16.9688H9.03125V22.5938H6.21875V16.9688Z" fill="#C80067"/>
<path d="M30.125 29.625H32.9375V32.4375H30.125V29.625Z" fill="#C80067"/>
<path d="M16.0625 29.625H18.875V32.4375H16.0625V29.625Z" fill="#C80067"/>
<path d="M31.5312 7.125H17.4688C15.6046 7.1272 13.8175 7.86869 12.4993 9.18683C11.1812 10.505 10.4397 12.2921 10.4375 14.1562V33.8438C10.4384 34.5894 10.7349 35.3043 11.2622 35.8315C11.7895 36.3588 12.5043 36.6554 13.25 36.6562V40.875H16.0625V36.6562H32.9375V40.875H35.75V36.6562C36.4956 36.6552 37.2104 36.3586 37.7376 35.8314C38.2649 35.3041 38.5615 34.5894 38.5625 33.8438V14.1562C38.5603 12.2921 37.8188 10.505 36.5007 9.18683C35.1825 7.86869 33.3954 7.1272 31.5312 7.125ZM35.75 15.5625L35.7513 24H13.25V15.5625H35.75ZM17.4688 9.9375H31.5312C32.4009 9.94017 33.2483 10.2119 33.9573 10.7155C34.6662 11.2191 35.2019 11.9298 35.4908 12.75H13.5092C13.7981 11.9298 14.3338 11.2191 15.0427 10.7155C15.7517 10.2119 16.5991 9.94017 17.4688 9.9375ZM13.25 33.8438V26.8125H35.7517L35.7528 33.8438H13.25Z" fill="#C80067"/>
</svg>
