<svg width="48" height="48" viewBox="0 0 48 48" fill="none" xmlns="http://www.w3.org/2000/svg">
<path d="M24 8C32.8368 8 40 15.1632 40 24C40 32.8368 32.8368 40 24 40C15.1632 40 8 32.8368 8 24C8 15.1632 15.1632 8 24 8ZM24 11.2C20.6052 11.2 17.3495 12.5486 14.949 14.949C12.5486 17.3495 11.2 20.6052 11.2 24C11.2 27.3948 12.5486 30.6505 14.949 33.051C17.3495 35.4514 20.6052 36.8 24 36.8C27.3948 36.8 30.6505 35.4514 33.051 33.051C35.4514 30.6505 36.8 27.3948 36.8 24C36.8 20.6052 35.4514 17.3495 33.051 14.949C30.6505 12.5486 27.3948 11.2 24 11.2ZM24 14.4C24.3919 14.4001 24.7701 14.5439 25.063 14.8043C25.3559 15.0648 25.5429 15.4236 25.5888 15.8128L25.6 16V23.3376L29.9312 27.6688C30.2182 27.9567 30.3848 28.3431 30.3972 28.7494C30.4096 29.1557 30.2669 29.5515 29.998 29.8564C29.7291 30.1614 29.3543 30.3525 28.9496 30.391C28.545 30.4296 28.1408 30.3127 27.8192 30.064L27.6688 29.9312L22.8688 25.1312C22.6201 24.8823 22.4604 24.5584 22.4144 24.2096L22.4 24V16C22.4 15.5757 22.5686 15.1687 22.8686 14.8686C23.1687 14.5686 23.5757 14.4 24 14.4Z" fill="#C80067"/>
</svg>
