<svg width="48" height="48" viewBox="0 0 48 48" fill="none" xmlns="http://www.w3.org/2000/svg">
<path d="M42.2812 21.1875C42.6542 21.1875 43.0119 21.0393 43.2756 20.7756C43.5393 20.5119 43.6875 20.1542 43.6875 19.7812V12.75C43.6875 12.0041 43.3912 11.2887 42.8637 10.7613C42.3363 10.2338 41.6209 9.9375 40.875 9.9375H7.125C6.37908 9.9375 5.66371 10.2338 5.13626 10.7613C4.60882 11.2887 4.3125 12.0041 4.3125 12.75V19.7812C4.3125 20.1542 4.46066 20.5119 4.72438 20.7756C4.9881 21.0393 5.34579 21.1875 5.71875 21.1875C6.46467 21.1875 7.18004 21.4838 7.70749 22.0113C8.23493 22.5387 8.53125 23.2541 8.53125 24C8.53125 24.7459 8.23493 25.4613 7.70749 25.9887C7.18004 26.5162 6.46467 26.8125 5.71875 26.8125C5.34579 26.8125 4.9881 26.9607 4.72438 27.2244C4.46066 27.4881 4.3125 27.8458 4.3125 28.2188V35.25C4.3125 35.9959 4.60882 36.7113 5.13626 37.2387C5.66371 37.7662 6.37908 38.0625 7.125 38.0625H40.875C41.6209 38.0625 42.3363 37.7662 42.8637 37.2387C43.3912 36.7113 43.6875 35.9959 43.6875 35.25V28.2188C43.6875 27.8458 43.5393 27.4881 43.2756 27.2244C43.0119 26.9607 42.6542 26.8125 42.2812 26.8125C41.5353 26.8125 40.82 26.5162 40.2925 25.9887C39.7651 25.4613 39.4688 24.7459 39.4688 24C39.4688 23.2541 39.7651 22.5387 40.2925 22.0113C40.82 21.4838 41.5353 21.1875 42.2812 21.1875ZM40.875 29.4422V35.25H31.0312V31.0312H28.2188V35.25H7.125V29.4422C8.32875 29.1276 9.39421 28.4227 10.1547 27.438C10.9151 26.4533 11.3276 25.2442 11.3276 24C11.3276 22.7558 10.9151 21.5467 10.1547 20.562C9.39421 19.5773 8.32875 18.8724 7.125 18.5578V12.75H28.2188V16.9688H31.0312V12.75H40.875V18.5578C39.6713 18.8724 38.6058 19.5773 37.8453 20.562C37.0849 21.5467 36.6724 22.7558 36.6724 24C36.6724 25.2442 37.0849 26.4533 37.8453 27.438C38.6058 28.4227 39.6713 29.1276 40.875 29.4422Z" fill="#C80067"/>
<path d="M28.2188 19.7812H31.0312V28.2188H28.2188V19.7812Z" fill="#C80067"/>
</svg>
