<svg width="36" height="36" viewBox="0 0 36 36" fill="none" xmlns="http://www.w3.org/2000/svg">
<path d="M33.8464 10.0108C33.466 8.57853 32.3452 7.4505 30.9222 7.06769C28.3429 6.37207 18 6.37207 18 6.37207C18 6.37207 7.65724 6.37207 5.07784 7.06769C3.65481 7.45056 2.53405 8.57853 2.15366 10.0108C1.46252 12.6069 1.46252 18.0235 1.46252 18.0235C1.46252 18.0235 1.46252 23.44 2.15366 26.0362C2.53405 27.4684 3.65481 28.5495 5.07784 28.9323C7.65724 29.6279 18 29.6279 18 29.6279C18 29.6279 28.3428 29.6279 30.9222 28.9323C32.3452 28.5495 33.466 27.4684 33.8464 26.0362C34.5375 23.44 34.5375 18.0235 34.5375 18.0235C34.5375 18.0235 34.5375 12.6069 33.8464 10.0108ZM14.6173 22.9413V13.1057L23.2619 18.0236L14.6173 22.9413Z" fill="white"/>
</svg>
