<svg width="36" height="36" viewBox="0 0 36 36" fill="none" xmlns="http://www.w3.org/2000/svg">
<path d="M18 14.528C17.3133 14.528 16.642 14.7317 16.0711 15.1131C15.5001 15.4948 15.0551 16.0369 14.7923 16.6713C14.5295 17.3057 14.4607 18.0039 14.5948 18.6774C14.7287 19.3508 15.0594 19.9695 15.545 20.455C16.0305 20.9407 16.6492 21.2714 17.3227 21.4052C17.9961 21.5392 18.6943 21.4705 19.3287 21.2077C19.9631 20.9449 20.5054 20.4999 20.8868 19.9289C21.2685 19.358 21.472 18.6867 21.472 18C21.472 17.544 21.3823 17.0925 21.2077 16.6713C21.0332 16.2501 20.7775 15.8674 20.455 15.545C20.1326 15.2225 19.7499 14.9668 19.3287 14.7923C18.9075 14.6179 18.456 14.528 18 14.528ZM31.902 11.098C31.8946 10.0169 31.6955 8.94559 31.314 7.93405C31.033 7.19381 30.5982 6.52155 30.0383 5.96167C29.4785 5.40179 28.8062 4.96702 28.066 4.68595C27.0544 4.3044 25.9831 4.10536 24.902 4.09798C23.096 4 22.564 4 18 4C13.436 4 12.904 4 11.098 4.09798C10.0169 4.10536 8.94559 4.3044 7.93405 4.68595C7.19381 4.96702 6.52155 5.40179 5.96167 5.96167C5.40179 6.52155 4.96702 7.19381 4.68595 7.93405C4.3044 8.94559 4.10536 10.0169 4.09798 11.098C4 12.904 4 13.436 4 18C4 22.564 4 23.096 4.09798 24.902C4.1131 25.987 4.3119 27.0615 4.68595 28.08C4.96571 28.8168 5.40024 29.4852 5.96 30.04C6.5175 30.6032 7.19119 31.0381 7.93405 31.314C8.94559 31.6955 10.0169 31.8946 11.098 31.902C12.904 32 13.436 32 18 32C22.564 32 23.096 32 24.902 31.902C25.9831 31.8946 27.0544 31.6955 28.066 31.314C28.8088 31.0381 29.4825 30.6032 30.04 30.04C30.5999 29.4852 31.0343 28.8168 31.314 28.08C31.6952 27.0635 31.8942 25.9877 31.902 24.902C32 23.096 32 22.564 32 18C32 13.436 32 12.904 31.902 11.098ZM28.346 22.298C28.3011 23.1619 28.1167 24.013 27.8 24.818C27.5282 25.4896 27.1242 26.0995 26.612 26.612C26.0995 27.1243 25.4896 27.5282 24.818 27.8C24.0054 28.099 23.1496 28.2645 22.284 28.29H13.716C12.8505 28.2645 11.9946 28.099 11.182 27.8C10.4877 27.542 9.86083 27.1304 9.34798 26.596C8.84071 26.0938 8.44893 25.487 8.2 24.818C7.89976 24.0062 7.73881 23.1495 7.72405 22.284V13.716C7.73881 12.8506 7.89976 11.9938 8.2 11.182C8.45798 10.4877 8.86964 9.86083 9.40405 9.34798C9.90845 8.84345 10.5145 8.45214 11.182 8.2C11.9946 7.90095 12.8505 7.73548 13.716 7.71H22.284C23.1496 7.73548 24.0054 7.90095 24.818 8.2C25.5123 8.45798 26.1392 8.86964 26.652 9.40405C27.1592 9.90631 27.5511 10.513 27.8 11.182C28.099 11.9946 28.2645 12.8505 28.29 13.716V18C28.29 20.884 28.388 21.178 28.346 22.284V22.298ZM26.106 11.882C25.9393 11.4298 25.6764 11.019 25.3357 10.6783C24.995 10.3375 24.5842 10.0746 24.132 9.90798C23.5111 9.69274 22.857 9.58857 22.2 9.6H13.8C13.1396 9.60643 12.4855 9.72964 11.868 9.96405C11.4227 10.1231 11.0164 10.3752 10.6761 10.7035C10.3357 11.0318 10.069 11.4287 9.89405 11.868C9.69071 12.4915 9.59131 13.1443 9.6 13.8V22.2C9.61393 22.8596 9.7369 23.5125 9.96405 24.132C10.1307 24.5842 10.3935 24.995 10.7343 25.3357C11.0751 25.6764 11.4858 25.9393 11.938 26.106C12.5354 26.3257 13.1639 26.4486 13.8 26.47H22.2C22.8604 26.4636 23.5145 26.3404 24.132 26.106C24.5842 25.9393 24.995 25.6764 25.3357 25.3357C25.6764 24.995 25.9393 24.5842 26.106 24.132C26.3404 23.5145 26.4636 22.8604 26.47 22.2V13.8C26.4705 13.1389 26.3469 12.4836 26.106 11.868V11.882ZM18 23.348C17.2983 23.348 16.6037 23.2095 15.9556 22.9406C15.3075 22.6717 14.7188 22.2776 14.2233 21.7807C13.7279 21.2839 13.3352 20.6943 13.068 20.0456C12.8008 19.3968 12.6642 18.7017 12.666 18C12.666 16.9418 12.98 15.9071 13.5683 15.0274C14.1565 14.1476 14.9926 13.4621 15.9707 13.0577C16.9487 12.6535 18.0248 12.5483 19.0625 12.7558C20.1002 12.9633 21.0531 13.474 21.8006 14.2233C22.5479 14.9727 23.0562 15.9269 23.261 16.9652C23.4657 18.0037 23.3579 19.0794 22.9508 20.0563C22.544 21.0332 21.8563 21.8675 20.975 22.4536C20.0937 23.0394 19.0583 23.3508 18 23.348ZM23.6 13.702C23.2905 13.6693 23.0042 13.5231 22.796 13.2918C22.5879 13.0605 22.4726 12.7602 22.4726 12.449C22.4726 12.1379 22.5877 11.8376 22.796 11.6062C23.0042 11.3748 23.2905 11.2288 23.6 11.196C23.9095 11.2288 24.1958 11.3749 24.404 11.6062C24.6123 11.8376 24.7274 12.1377 24.7274 12.449C24.7274 12.7604 24.6123 13.0604 24.404 13.2918C24.1958 13.5232 23.9095 13.6693 23.6 13.702Z" fill="white"/>
</svg>
